<svg width="526" height="249" viewBox="0 0 526 249" fill="none" xmlns="http://www.w3.org/2000/svg">
<rect width="526" height="249" rx="10" fill="white"/>
<rect x="206.379" y="30.3798" width="113.241" height="113.241" rx="56.6203" fill="#21C650" fill-opacity="0.05"/>
<rect x="220.734" y="46.3291" width="82.9367" height="82.9367" rx="41.4684" fill="#21C650" fill-opacity="0.15"/>
<path d="M263.002 53.1075C244.327 53.1075 229.109 68.3252 229.109 87C229.109 105.675 244.327 120.892 263.002 120.892C281.676 120.892 296.894 105.675 296.894 87C296.894 68.3252 281.676 53.1075 263.002 53.1075ZM279.202 79.2047L259.985 98.4217C259.511 98.8962 258.867 99.1673 258.189 99.1673C257.511 99.1673 256.867 98.8962 256.393 98.4217L246.801 88.8301C245.818 87.8473 245.818 86.2204 246.801 85.2375C247.784 84.2547 249.411 84.2547 250.394 85.2375L258.189 93.0328L275.61 75.6121C276.593 74.6292 278.219 74.6292 279.202 75.6121C280.185 76.595 280.185 78.1879 279.202 79.2047Z" fill="#21C650"/>
<path d="M184.917 181V169.8H189.301C190.091 169.8 190.747 169.923 191.269 170.168C191.803 170.413 192.203 170.755 192.469 171.192C192.736 171.619 192.869 172.115 192.869 172.68C192.869 173.245 192.747 173.72 192.501 174.104C192.256 174.488 191.931 174.781 191.525 174.984C191.131 175.187 190.699 175.309 190.229 175.352L190.469 175.176C190.971 175.187 191.419 175.32 191.813 175.576C192.219 175.832 192.539 176.168 192.773 176.584C193.008 176.989 193.125 177.443 193.125 177.944C193.125 178.531 192.981 179.059 192.693 179.528C192.416 179.987 192.005 180.349 191.461 180.616C190.917 180.872 190.251 181 189.461 181H184.917ZM186.837 179.432H189.173C189.803 179.432 190.293 179.283 190.645 178.984C190.997 178.685 191.173 178.269 191.173 177.736C191.173 177.203 190.992 176.781 190.629 176.472C190.267 176.152 189.771 175.992 189.141 175.992H186.837V179.432ZM186.837 174.536H189.029C189.648 174.536 190.117 174.397 190.437 174.12C190.757 173.832 190.917 173.437 190.917 172.936C190.917 172.445 190.757 172.061 190.437 171.784C190.117 171.496 189.643 171.352 189.013 171.352H186.837V174.536ZM198.16 181.192C197.392 181.192 196.699 181.016 196.08 180.664C195.472 180.301 194.992 179.805 194.64 179.176C194.299 178.536 194.128 177.805 194.128 176.984C194.128 176.141 194.304 175.405 194.656 174.776C195.008 174.136 195.488 173.64 196.096 173.288C196.715 172.925 197.408 172.744 198.176 172.744C198.944 172.744 199.632 172.925 200.24 173.288C200.859 173.64 201.339 174.131 201.68 174.76C202.032 175.389 202.208 176.125 202.208 176.968C202.208 177.811 202.032 178.547 201.68 179.176C201.328 179.805 200.843 180.301 200.224 180.664C199.616 181.016 198.928 181.192 198.16 181.192ZM198.16 179.544C198.544 179.544 198.891 179.448 199.2 179.256C199.52 179.064 199.776 178.776 199.968 178.392C200.16 178.008 200.256 177.533 200.256 176.968C200.256 176.403 200.16 175.933 199.968 175.56C199.787 175.176 199.536 174.888 199.216 174.696C198.907 174.504 198.56 174.408 198.176 174.408C197.803 174.408 197.456 174.504 197.136 174.696C196.816 174.888 196.56 175.176 196.368 175.56C196.176 175.933 196.08 176.403 196.08 176.968C196.08 177.533 196.176 178.008 196.368 178.392C196.56 178.776 196.811 179.064 197.12 179.256C197.44 179.448 197.787 179.544 198.16 179.544ZM207.348 181.192C206.58 181.192 205.886 181.016 205.268 180.664C204.66 180.301 204.18 179.805 203.828 179.176C203.486 178.536 203.316 177.805 203.316 176.984C203.316 176.141 203.492 175.405 203.844 174.776C204.196 174.136 204.676 173.64 205.284 173.288C205.902 172.925 206.596 172.744 207.364 172.744C208.132 172.744 208.82 172.925 209.428 173.288C210.046 173.64 210.526 174.131 210.868 174.76C211.22 175.389 211.396 176.125 211.396 176.968C211.396 177.811 211.22 178.547 210.868 179.176C210.516 179.805 210.03 180.301 209.412 180.664C208.804 181.016 208.116 181.192 207.348 181.192ZM207.348 179.544C207.732 179.544 208.078 179.448 208.388 179.256C208.708 179.064 208.964 178.776 209.156 178.392C209.348 178.008 209.444 177.533 209.444 176.968C209.444 176.403 209.348 175.933 209.156 175.56C208.974 175.176 208.724 174.888 208.404 174.696C208.094 174.504 207.748 174.408 207.364 174.408C206.99 174.408 206.644 174.504 206.324 174.696C206.004 174.888 205.748 175.176 205.556 175.56C205.364 175.933 205.268 176.403 205.268 176.968C205.268 177.533 205.364 178.008 205.556 178.392C205.748 178.776 205.998 179.064 206.308 179.256C206.628 179.448 206.974 179.544 207.348 179.544ZM217.975 181L214.407 176.584L217.607 172.936H219.895L215.911 177.368V175.88L220.375 181H217.975ZM212.775 181V169.48H214.695V181H212.775ZM221.246 181V172.936H223.166V181H221.246ZM222.206 171.656C221.854 171.656 221.56 171.549 221.326 171.336C221.102 171.112 220.99 170.84 220.99 170.52C220.99 170.189 221.102 169.923 221.326 169.72C221.56 169.507 221.854 169.4 222.206 169.4C222.558 169.4 222.846 169.507 223.07 169.72C223.304 169.923 223.422 170.189 223.422 170.52C223.422 170.84 223.304 171.112 223.07 171.336C222.846 171.549 222.558 171.656 222.206 171.656ZM224.885 181V172.936H226.581L226.725 174.28C226.97 173.811 227.322 173.437 227.781 173.16C228.239 172.883 228.783 172.744 229.413 172.744C230.063 172.744 230.618 172.883 231.077 173.16C231.535 173.427 231.887 173.821 232.133 174.344C232.389 174.867 232.517 175.517 232.517 176.296V181H230.597V176.472C230.597 175.8 230.447 175.283 230.149 174.92C229.85 174.557 229.407 174.376 228.821 174.376C228.437 174.376 228.09 174.467 227.781 174.648C227.482 174.829 227.242 175.096 227.061 175.448C226.89 175.789 226.805 176.205 226.805 176.696V181H224.885ZM237.433 184.712C236.675 184.712 236.009 184.616 235.433 184.424C234.867 184.243 234.425 183.96 234.105 183.576C233.795 183.203 233.641 182.733 233.641 182.168C233.641 181.837 233.721 181.512 233.881 181.192C234.051 180.883 234.302 180.595 234.633 180.328C234.974 180.051 235.406 179.811 235.929 179.608L236.777 180.536C236.265 180.717 235.907 180.936 235.705 181.192C235.502 181.448 235.401 181.709 235.401 181.976C235.401 182.253 235.486 182.483 235.657 182.664C235.838 182.856 236.078 183 236.377 183.096C236.686 183.192 237.033 183.24 237.417 183.24C237.79 183.24 238.115 183.187 238.393 183.08C238.67 182.984 238.883 182.845 239.033 182.664C239.193 182.483 239.273 182.264 239.273 182.008C239.273 181.688 239.161 181.427 238.937 181.224C238.713 181.032 238.27 180.915 237.609 180.872C237.043 180.829 236.547 180.771 236.121 180.696C235.694 180.611 235.326 180.515 235.017 180.408C234.718 180.301 234.462 180.184 234.249 180.056C234.035 179.917 233.859 179.779 233.721 179.64V179.272L235.401 177.512L236.825 177.976L234.937 179.816L235.433 178.888C235.539 178.963 235.646 179.032 235.753 179.096C235.87 179.16 236.014 179.219 236.185 179.272C236.366 179.315 236.601 179.357 236.889 179.4C237.177 179.443 237.55 179.485 238.009 179.528C238.723 179.581 239.305 179.709 239.753 179.912C240.201 180.115 240.531 180.387 240.745 180.728C240.958 181.069 241.065 181.48 241.065 181.96C241.065 182.429 240.931 182.872 240.665 183.288C240.409 183.704 240.014 184.045 239.481 184.312C238.947 184.579 238.265 184.712 237.433 184.712ZM237.433 178.584C236.761 178.584 236.179 178.456 235.689 178.2C235.209 177.933 234.841 177.581 234.585 177.144C234.329 176.696 234.201 176.205 234.201 175.672C234.201 175.128 234.329 174.637 234.585 174.2C234.841 173.763 235.209 173.411 235.689 173.144C236.179 172.877 236.761 172.744 237.433 172.744C238.105 172.744 238.681 172.877 239.161 173.144C239.641 173.411 240.009 173.763 240.265 174.2C240.521 174.637 240.649 175.128 240.649 175.672C240.649 176.205 240.521 176.696 240.265 177.144C240.009 177.581 239.641 177.933 239.161 178.2C238.681 178.456 238.105 178.584 237.433 178.584ZM237.433 177.096C237.891 177.096 238.259 176.973 238.537 176.728C238.814 176.483 238.953 176.131 238.953 175.672C238.953 175.213 238.814 174.867 238.537 174.632C238.259 174.387 237.891 174.264 237.433 174.264C236.974 174.264 236.601 174.387 236.313 174.632C236.025 174.867 235.881 175.213 235.881 175.672C235.881 176.131 236.025 176.483 236.313 176.728C236.601 176.973 236.974 177.096 237.433 177.096ZM238.761 174.344L238.393 172.936H241.705V174.136L238.761 174.344ZM251.346 181.192C250.237 181.192 249.277 180.952 248.466 180.472C247.666 179.981 247.048 179.304 246.61 178.44C246.184 177.565 245.97 176.557 245.97 175.416C245.97 174.264 246.184 173.256 246.61 172.392C247.048 171.517 247.666 170.835 248.466 170.344C249.277 169.853 250.237 169.608 251.346 169.608C252.68 169.608 253.768 169.939 254.61 170.6C255.453 171.251 255.986 172.173 256.21 173.368H254.098C253.949 172.739 253.645 172.243 253.186 171.88C252.728 171.517 252.109 171.336 251.33 171.336C250.626 171.336 250.018 171.501 249.506 171.832C249.005 172.152 248.616 172.621 248.338 173.24C248.072 173.848 247.938 174.573 247.938 175.416C247.938 176.259 248.072 176.984 248.338 177.592C248.616 178.189 249.005 178.653 249.506 178.984C250.018 179.304 250.626 179.464 251.33 179.464C252.109 179.464 252.728 179.299 253.186 178.968C253.645 178.627 253.949 178.157 254.098 177.56H256.21C255.997 178.691 255.464 179.581 254.61 180.232C253.768 180.872 252.68 181.192 251.346 181.192ZM261.285 181.192C260.517 181.192 259.824 181.016 259.205 180.664C258.597 180.301 258.117 179.805 257.765 179.176C257.424 178.536 257.253 177.805 257.253 176.984C257.253 176.141 257.429 175.405 257.781 174.776C258.133 174.136 258.613 173.64 259.221 173.288C259.84 172.925 260.533 172.744 261.301 172.744C262.069 172.744 262.757 172.925 263.365 173.288C263.984 173.64 264.464 174.131 264.805 174.76C265.157 175.389 265.333 176.125 265.333 176.968C265.333 177.811 265.157 178.547 264.805 179.176C264.453 179.805 263.968 180.301 263.349 180.664C262.741 181.016 262.053 181.192 261.285 181.192ZM261.285 179.544C261.669 179.544 262.016 179.448 262.325 179.256C262.645 179.064 262.901 178.776 263.093 178.392C263.285 178.008 263.381 177.533 263.381 176.968C263.381 176.403 263.285 175.933 263.093 175.56C262.912 175.176 262.661 174.888 262.341 174.696C262.032 174.504 261.685 174.408 261.301 174.408C260.928 174.408 260.581 174.504 260.261 174.696C259.941 174.888 259.685 175.176 259.493 175.56C259.301 175.933 259.205 176.403 259.205 176.968C259.205 177.533 259.301 178.008 259.493 178.392C259.685 178.776 259.936 179.064 260.245 179.256C260.565 179.448 260.912 179.544 261.285 179.544ZM266.713 181V172.936H268.409L268.553 174.28C268.798 173.811 269.15 173.437 269.609 173.16C270.067 172.883 270.611 172.744 271.241 172.744C271.891 172.744 272.446 172.883 272.905 173.16C273.363 173.427 273.715 173.821 273.961 174.344C274.217 174.867 274.345 175.517 274.345 176.296V181H272.425V176.472C272.425 175.8 272.275 175.283 271.977 174.92C271.678 174.557 271.235 174.376 270.649 174.376C270.265 174.376 269.918 174.467 269.609 174.648C269.31 174.829 269.07 175.096 268.889 175.448C268.718 175.789 268.633 176.205 268.633 176.696V181H266.713ZM276.253 181V174.552H275.117V172.936H276.253V172.056C276.253 171.437 276.36 170.941 276.573 170.568C276.786 170.184 277.09 169.907 277.485 169.736C277.88 169.565 278.349 169.48 278.893 169.48H279.741V171.112H279.181C278.829 171.112 278.573 171.187 278.413 171.336C278.253 171.475 278.173 171.72 278.173 172.072V172.936H283.181V181H281.261V174.552H278.173V181H276.253ZM282.237 171.72C281.885 171.72 281.592 171.613 281.357 171.4C281.133 171.176 281.021 170.904 281.021 170.584C281.021 170.253 281.133 169.987 281.357 169.784C281.592 169.571 281.885 169.464 282.237 169.464C282.6 169.464 282.893 169.571 283.117 169.784C283.341 169.987 283.453 170.253 283.453 170.584C283.453 170.904 283.341 171.176 283.117 171.4C282.893 171.613 282.6 171.72 282.237 171.72ZM284.9 181V172.936H286.612L286.788 174.44C286.98 174.088 287.22 173.789 287.508 173.544C287.796 173.288 288.132 173.091 288.516 172.952C288.911 172.813 289.343 172.744 289.812 172.744V174.776H289.14C288.82 174.776 288.516 174.819 288.228 174.904C287.94 174.979 287.689 175.107 287.476 175.288C287.273 175.459 287.113 175.699 286.996 176.008C286.879 176.307 286.82 176.685 286.82 177.144V181H284.9ZM290.76 181V172.936H292.456L292.616 174.04C292.872 173.635 293.208 173.32 293.624 173.096C294.05 172.861 294.536 172.744 295.08 172.744C295.485 172.744 295.848 172.797 296.168 172.904C296.498 173.011 296.786 173.171 297.032 173.384C297.288 173.597 297.496 173.864 297.656 174.184C297.954 173.736 298.344 173.384 298.824 173.128C299.304 172.872 299.826 172.744 300.392 172.744C301.064 172.744 301.634 172.883 302.104 173.16C302.573 173.427 302.93 173.827 303.176 174.36C303.421 174.883 303.544 175.528 303.544 176.296V181H301.64V176.488C301.64 175.805 301.501 175.283 301.224 174.92C300.946 174.557 300.536 174.376 299.992 174.376C299.618 174.376 299.288 174.467 299 174.648C298.722 174.829 298.504 175.096 298.344 175.448C298.184 175.789 298.104 176.211 298.104 176.712V181H296.2V176.488C296.2 175.805 296.061 175.283 295.784 174.92C295.506 174.557 295.09 174.376 294.536 174.376C294.184 174.376 293.864 174.467 293.576 174.648C293.298 174.829 293.08 175.096 292.92 175.448C292.76 175.789 292.68 176.211 292.68 176.712V181H290.76ZM308.848 181.192C308.048 181.192 307.344 181.021 306.736 180.68C306.128 180.328 305.653 179.837 305.312 179.208C304.971 178.579 304.8 177.853 304.8 177.032C304.8 176.179 304.965 175.432 305.296 174.792C305.637 174.152 306.112 173.651 306.72 173.288C307.339 172.925 308.053 172.744 308.864 172.744C309.653 172.744 310.341 172.92 310.928 173.272C311.515 173.624 311.968 174.099 312.288 174.696C312.608 175.283 312.768 175.944 312.768 176.68C312.768 176.787 312.768 176.904 312.768 177.032C312.768 177.16 312.757 177.293 312.736 177.432H306.176V176.2H310.832C310.811 175.613 310.613 175.155 310.24 174.824C309.867 174.483 309.403 174.312 308.848 174.312C308.453 174.312 308.091 174.403 307.76 174.584C307.429 174.765 307.168 175.037 306.976 175.4C306.784 175.752 306.688 176.2 306.688 176.744V177.208C306.688 177.709 306.779 178.141 306.96 178.504C307.152 178.867 307.408 179.144 307.728 179.336C308.059 179.517 308.427 179.608 308.832 179.608C309.28 179.608 309.648 179.512 309.936 179.32C310.235 179.128 310.453 178.872 310.592 178.552H312.544C312.395 179.053 312.149 179.507 311.808 179.912C311.467 180.307 311.045 180.621 310.544 180.856C310.043 181.08 309.477 181.192 308.848 181.192ZM317.625 181.192C316.878 181.192 316.211 181.011 315.625 180.648C315.038 180.285 314.579 179.784 314.249 179.144C313.929 178.504 313.769 177.779 313.769 176.968C313.769 176.157 313.934 175.437 314.265 174.808C314.595 174.168 315.054 173.667 315.641 173.304C316.238 172.931 316.91 172.744 317.657 172.744C318.265 172.744 318.793 172.861 319.241 173.096C319.699 173.32 320.062 173.64 320.329 174.056V169.48H322.249V181H320.521L320.329 179.832C320.158 180.067 319.95 180.291 319.705 180.504C319.459 180.707 319.166 180.872 318.825 181C318.483 181.128 318.083 181.192 317.625 181.192ZM318.025 179.528C318.483 179.528 318.889 179.421 319.241 179.208C319.593 178.984 319.865 178.68 320.057 178.296C320.249 177.912 320.345 177.469 320.345 176.968C320.345 176.467 320.249 176.024 320.057 175.64C319.865 175.256 319.593 174.957 319.241 174.744C318.889 174.531 318.483 174.424 318.025 174.424C317.587 174.424 317.193 174.531 316.841 174.744C316.489 174.957 316.211 175.256 316.009 175.64C315.817 176.024 315.721 176.467 315.721 176.968C315.721 177.469 315.817 177.912 316.009 178.296C316.211 178.68 316.489 178.984 316.841 179.208C317.193 179.421 317.587 179.528 318.025 179.528ZM326.219 182.12H342.219V166.12H326.219V182.12Z" fill="#0A0D14"/>
<path d="M55.9126 218V214.276L52.7206 208.2H54.0506L56.6826 213.506H56.3326L58.9506 208.2H60.2666L57.0886 214.276V218H55.9126ZM63.1749 218.168C62.5216 218.168 61.9336 218.019 61.4109 217.72C60.8883 217.412 60.4776 216.983 60.1789 216.432C59.8803 215.872 59.7309 215.223 59.7309 214.486C59.7309 213.73 59.8803 213.077 60.1789 212.526C60.4869 211.966 60.9023 211.537 61.4249 211.238C61.9569 210.93 62.5496 210.776 63.2029 210.776C63.8749 210.776 64.4676 210.93 64.9809 211.238C65.5036 211.537 65.9143 211.966 66.2129 212.526C66.5209 213.077 66.6749 213.725 66.6749 214.472C66.6749 215.219 66.5209 215.872 66.2129 216.432C65.9049 216.983 65.4896 217.412 64.9669 217.72C64.4443 218.019 63.8469 218.168 63.1749 218.168ZM63.1889 217.16C63.5903 217.16 63.9636 217.062 64.3089 216.866C64.6543 216.661 64.9343 216.357 65.1489 215.956C65.3636 215.555 65.4709 215.06 65.4709 214.472C65.4709 213.875 65.3636 213.38 65.1489 212.988C64.9436 212.587 64.6683 212.288 64.3229 212.092C63.9869 211.887 63.6136 211.784 63.2029 211.784C62.8109 211.784 62.4376 211.887 62.0829 212.092C61.7376 212.288 61.4576 212.587 61.2429 212.988C61.0376 213.38 60.9349 213.875 60.9349 214.472C60.9349 215.06 61.0376 215.555 61.2429 215.956C61.4576 216.357 61.7329 216.661 62.0689 216.866C62.4143 217.062 62.7876 217.16 63.1889 217.16ZM70.5858 218.168C70.0444 218.168 69.5684 218.061 69.1578 217.846C68.7564 217.631 68.4438 217.3 68.2198 216.852C68.0051 216.404 67.8978 215.844 67.8978 215.172V210.944H69.0738V215.046C69.0738 215.746 69.2278 216.273 69.5358 216.628C69.8438 216.983 70.2778 217.16 70.8378 217.16C71.2298 217.16 71.5844 217.067 71.9018 216.88C72.2191 216.684 72.4664 216.409 72.6438 216.054C72.8304 215.69 72.9238 215.247 72.9238 214.724V210.944H74.0998V218H73.0358L72.9658 216.768C72.7511 217.207 72.4338 217.552 72.0138 217.804C71.5938 218.047 71.1178 218.168 70.5858 218.168ZM75.7491 218V210.944H76.8131L76.8971 212.288C77.0558 211.971 77.2565 211.7 77.4991 211.476C77.7511 211.252 78.0498 211.079 78.3951 210.958C78.7498 210.837 79.1511 210.776 79.5991 210.776V212.008H79.1651C78.8665 212.008 78.5818 212.05 78.3111 212.134C78.0405 212.209 77.7978 212.335 77.5831 212.512C77.3778 212.689 77.2145 212.932 77.0931 213.24C76.9811 213.539 76.9251 213.912 76.9251 214.36V218H75.7491ZM86.0795 218L83.4055 210.944H84.6375L86.7655 216.866L88.9075 210.944H90.1115L87.4375 218H86.0795ZM93.8709 218.168C93.2082 218.168 92.6202 218.014 92.1069 217.706C91.6029 217.398 91.2062 216.969 90.9169 216.418C90.6275 215.858 90.4829 215.209 90.4829 214.472C90.4829 213.725 90.6229 213.077 90.9029 212.526C91.1922 211.975 91.5935 211.546 92.1069 211.238C92.6295 210.93 93.2269 210.776 93.8989 210.776C94.5895 210.776 95.1729 210.93 95.6489 211.238C96.1342 211.546 96.5029 211.952 96.7549 212.456C97.0162 212.951 97.1469 213.497 97.1469 214.094C97.1469 214.187 97.1469 214.285 97.1469 214.388C97.1469 214.491 97.1422 214.607 97.1329 214.738H91.3649V213.828H95.9989C95.9709 213.184 95.7562 212.68 95.3549 212.316C94.9629 211.952 94.4682 211.77 93.8709 211.77C93.4695 211.77 93.0962 211.863 92.7509 212.05C92.4149 212.227 92.1442 212.493 91.9389 212.848C91.7335 213.193 91.6309 213.627 91.6309 214.15V214.542C91.6309 215.121 91.7335 215.606 91.9389 215.998C92.1535 216.39 92.4289 216.684 92.7649 216.88C93.1102 217.076 93.4789 217.174 93.8709 217.174C94.3655 217.174 94.7715 217.067 95.0889 216.852C95.4155 216.628 95.6489 216.329 95.7889 215.956H96.9509C96.8389 216.376 96.6429 216.754 96.3629 217.09C96.0829 217.426 95.7329 217.692 95.3129 217.888C94.9022 218.075 94.4215 218.168 93.8709 218.168ZM98.4339 218V207.92H99.6099V212.134C99.8432 211.714 100.17 211.383 100.59 211.14C101.019 210.897 101.486 210.776 101.99 210.776C102.531 210.776 103.003 210.888 103.404 211.112C103.805 211.327 104.113 211.658 104.328 212.106C104.543 212.554 104.65 213.119 104.65 213.8V218H103.488V213.926C103.488 213.217 103.339 212.685 103.04 212.33C102.741 211.966 102.307 211.784 101.738 211.784C101.337 211.784 100.973 211.882 100.646 212.078C100.329 212.274 100.077 212.554 99.8899 212.918C99.7032 213.282 99.6099 213.73 99.6099 214.262V218H98.4339ZM106.299 218V210.944H107.475V218H106.299ZM106.887 209.446C106.653 209.446 106.457 209.371 106.299 209.222C106.149 209.063 106.075 208.867 106.075 208.634C106.075 208.401 106.149 208.214 106.299 208.074C106.457 207.925 106.653 207.85 106.887 207.85C107.111 207.85 107.302 207.925 107.461 208.074C107.619 208.214 107.699 208.401 107.699 208.634C107.699 208.867 107.619 209.063 107.461 209.222C107.302 209.371 107.111 209.446 106.887 209.446ZM112.428 218.168C111.765 218.168 111.168 218.014 110.636 217.706C110.113 217.398 109.703 216.969 109.404 216.418C109.105 215.858 108.956 215.214 108.956 214.486C108.956 213.739 109.105 213.091 109.404 212.54C109.703 211.989 110.113 211.56 110.636 211.252C111.168 210.935 111.765 210.776 112.428 210.776C113.268 210.776 113.968 210.995 114.528 211.434C115.088 211.863 115.443 212.442 115.592 213.17H114.388C114.295 212.731 114.066 212.391 113.702 212.148C113.338 211.905 112.909 211.784 112.414 211.784C112.013 211.784 111.639 211.887 111.294 212.092C110.949 212.288 110.673 212.587 110.468 212.988C110.263 213.389 110.16 213.884 110.16 214.472C110.16 214.911 110.221 215.303 110.342 215.648C110.463 215.984 110.627 216.264 110.832 216.488C111.037 216.712 111.275 216.885 111.546 217.006C111.826 217.118 112.115 217.174 112.414 217.174C112.75 217.174 113.053 217.123 113.324 217.02C113.595 216.908 113.823 216.745 114.01 216.53C114.197 216.315 114.323 216.063 114.388 215.774H115.592C115.443 216.483 115.083 217.062 114.514 217.51C113.954 217.949 113.259 218.168 112.428 218.168ZM116.962 218V207.92H118.138V218H116.962ZM122.873 218.168C122.21 218.168 121.622 218.014 121.109 217.706C120.605 217.398 120.208 216.969 119.919 216.418C119.629 215.858 119.485 215.209 119.485 214.472C119.485 213.725 119.625 213.077 119.905 212.526C120.194 211.975 120.595 211.546 121.109 211.238C121.631 210.93 122.229 210.776 122.901 210.776C123.591 210.776 124.175 210.93 124.651 211.238C125.136 211.546 125.505 211.952 125.757 212.456C126.018 212.951 126.149 213.497 126.149 214.094C126.149 214.187 126.149 214.285 126.149 214.388C126.149 214.491 126.144 214.607 126.135 214.738H120.367V213.828H125.001C124.973 213.184 124.758 212.68 124.357 212.316C123.965 211.952 123.47 211.77 122.873 211.77C122.471 211.77 122.098 211.863 121.753 212.05C121.417 212.227 121.146 212.493 120.941 212.848C120.735 213.193 120.633 213.627 120.633 214.15V214.542C120.633 215.121 120.735 215.606 120.941 215.998C121.155 216.39 121.431 216.684 121.767 216.88C122.112 217.076 122.481 217.174 122.873 217.174C123.367 217.174 123.773 217.067 124.091 216.852C124.417 216.628 124.651 216.329 124.791 215.956H125.953C125.841 216.376 125.645 216.754 125.365 217.09C125.085 217.426 124.735 217.692 124.315 217.888C123.904 218.075 123.423 218.168 122.873 218.168ZM130.855 218V207.92H132.031V212.134C132.264 211.714 132.591 211.383 133.011 211.14C133.44 210.897 133.907 210.776 134.411 210.776C134.952 210.776 135.423 210.888 135.825 211.112C136.226 211.327 136.534 211.658 136.749 212.106C136.963 212.554 137.071 213.119 137.071 213.8V218H135.909V213.926C135.909 213.217 135.759 212.685 135.461 212.33C135.162 211.966 134.728 211.784 134.159 211.784C133.757 211.784 133.393 211.882 133.067 212.078C132.749 212.274 132.497 212.554 132.311 212.918C132.124 213.282 132.031 213.73 132.031 214.262V218H130.855ZM140.903 218.168C140.334 218.168 139.858 218.07 139.475 217.874C139.093 217.669 138.808 217.403 138.621 217.076C138.435 216.74 138.341 216.376 138.341 215.984C138.341 215.508 138.463 215.107 138.705 214.78C138.957 214.444 139.307 214.192 139.755 214.024C140.213 213.847 140.749 213.758 141.365 213.758H143.227C143.227 213.319 143.157 212.955 143.017 212.666C142.887 212.367 142.691 212.143 142.429 211.994C142.177 211.845 141.86 211.77 141.477 211.77C141.029 211.77 140.642 211.882 140.315 212.106C139.989 212.33 139.788 212.661 139.713 213.1H138.509C138.565 212.596 138.733 212.176 139.013 211.84C139.303 211.495 139.667 211.233 140.105 211.056C140.544 210.869 141.001 210.776 141.477 210.776C142.131 210.776 142.672 210.897 143.101 211.14C143.54 211.373 143.867 211.705 144.081 212.134C144.296 212.554 144.403 213.053 144.403 213.632V218H143.353L143.283 216.754C143.19 216.95 143.069 217.137 142.919 217.314C142.779 217.482 142.611 217.631 142.415 217.762C142.219 217.883 141.995 217.981 141.743 218.056C141.501 218.131 141.221 218.168 140.903 218.168ZM141.085 217.174C141.412 217.174 141.706 217.109 141.967 216.978C142.238 216.838 142.467 216.651 142.653 216.418C142.84 216.175 142.98 215.909 143.073 215.62C143.176 215.331 143.227 215.027 143.227 214.71V214.668H141.463C141.006 214.668 140.637 214.724 140.357 214.836C140.077 214.939 139.877 215.088 139.755 215.284C139.634 215.471 139.573 215.685 139.573 215.928C139.573 216.18 139.629 216.399 139.741 216.586C139.863 216.773 140.035 216.917 140.259 217.02C140.493 217.123 140.768 217.174 141.085 217.174ZM148.583 218.168C147.995 218.168 147.481 218.07 147.043 217.874C146.613 217.678 146.268 217.407 146.007 217.062C145.755 216.707 145.601 216.292 145.545 215.816H146.749C146.795 216.059 146.893 216.283 147.043 216.488C147.192 216.693 147.393 216.861 147.645 216.992C147.906 217.113 148.223 217.174 148.597 217.174C148.923 217.174 149.194 217.127 149.409 217.034C149.623 216.931 149.782 216.796 149.885 216.628C149.997 216.46 150.053 216.278 150.053 216.082C150.053 215.793 149.983 215.573 149.843 215.424C149.712 215.275 149.516 215.158 149.255 215.074C148.993 214.981 148.676 214.901 148.303 214.836C147.995 214.78 147.691 214.705 147.393 214.612C147.094 214.519 146.828 214.397 146.595 214.248C146.361 214.089 146.175 213.898 146.035 213.674C145.904 213.45 145.839 213.175 145.839 212.848C145.839 212.447 145.941 212.092 146.147 211.784C146.352 211.467 146.646 211.219 147.029 211.042C147.421 210.865 147.873 210.776 148.387 210.776C149.143 210.776 149.754 210.958 150.221 211.322C150.687 211.686 150.963 212.213 151.047 212.904H149.885C149.838 212.549 149.684 212.274 149.423 212.078C149.171 211.873 148.821 211.77 148.373 211.77C147.934 211.77 147.598 211.859 147.365 212.036C147.141 212.213 147.029 212.447 147.029 212.736C147.029 212.923 147.089 213.091 147.211 213.24C147.341 213.38 147.528 213.501 147.771 213.604C148.023 213.707 148.331 213.791 148.695 213.856C149.161 213.94 149.586 214.052 149.969 214.192C150.351 214.332 150.659 214.542 150.893 214.822C151.135 215.093 151.257 215.48 151.257 215.984C151.257 216.423 151.145 216.805 150.921 217.132C150.706 217.459 150.398 217.715 149.997 217.902C149.595 218.079 149.124 218.168 148.583 218.168ZM159.765 218.168C159.363 218.168 158.999 218.112 158.673 218C158.355 217.879 158.075 217.72 157.833 217.524C157.59 217.328 157.389 217.099 157.231 216.838L157.133 218H156.069V207.92H157.245V212.106C157.469 211.742 157.791 211.429 158.211 211.168C158.631 210.907 159.149 210.776 159.765 210.776C160.446 210.776 161.043 210.939 161.557 211.266C162.07 211.583 162.467 212.022 162.747 212.582C163.036 213.133 163.181 213.763 163.181 214.472C163.181 215.181 163.036 215.816 162.747 216.376C162.467 216.936 162.07 217.375 161.557 217.692C161.043 218.009 160.446 218.168 159.765 218.168ZM159.625 217.146C160.082 217.146 160.488 217.034 160.843 216.81C161.197 216.586 161.473 216.278 161.669 215.886C161.874 215.485 161.977 215.013 161.977 214.472C161.977 213.94 161.874 213.473 161.669 213.072C161.473 212.671 161.197 212.358 160.843 212.134C160.488 211.91 160.082 211.798 159.625 211.798C159.158 211.798 158.747 211.91 158.393 212.134C158.038 212.358 157.763 212.671 157.567 213.072C157.371 213.473 157.273 213.94 157.273 214.472C157.273 215.013 157.371 215.485 157.567 215.886C157.763 216.278 158.038 216.586 158.393 216.81C158.747 217.034 159.158 217.146 159.625 217.146ZM167.626 218.168C166.964 218.168 166.376 218.014 165.862 217.706C165.358 217.398 164.962 216.969 164.672 216.418C164.383 215.858 164.238 215.209 164.238 214.472C164.238 213.725 164.378 213.077 164.658 212.526C164.948 211.975 165.349 211.546 165.862 211.238C166.385 210.93 166.982 210.776 167.654 210.776C168.345 210.776 168.928 210.93 169.404 211.238C169.89 211.546 170.258 211.952 170.51 212.456C170.772 212.951 170.902 213.497 170.902 214.094C170.902 214.187 170.902 214.285 170.902 214.388C170.902 214.491 170.898 214.607 170.888 214.738H165.12V213.828H169.754C169.726 213.184 169.512 212.68 169.11 212.316C168.718 211.952 168.224 211.77 167.626 211.77C167.225 211.77 166.852 211.863 166.506 212.05C166.17 212.227 165.9 212.493 165.694 212.848C165.489 213.193 165.386 213.627 165.386 214.15V214.542C165.386 215.121 165.489 215.606 165.694 215.998C165.909 216.39 166.184 216.684 166.52 216.88C166.866 217.076 167.234 217.174 167.626 217.174C168.121 217.174 168.527 217.067 168.844 216.852C169.171 216.628 169.404 216.329 169.544 215.956H170.706C170.594 216.376 170.398 216.754 170.118 217.09C169.838 217.426 169.488 217.692 169.068 217.888C168.658 218.075 168.177 218.168 167.626 218.168ZM175.283 218.168C174.621 218.168 174.033 218.014 173.519 217.706C173.015 217.398 172.619 216.969 172.329 216.418C172.04 215.858 171.895 215.209 171.895 214.472C171.895 213.725 172.035 213.077 172.315 212.526C172.605 211.975 173.006 211.546 173.519 211.238C174.042 210.93 174.639 210.776 175.311 210.776C176.002 210.776 176.585 210.93 177.061 211.238C177.547 211.546 177.915 211.952 178.167 212.456C178.429 212.951 178.559 213.497 178.559 214.094C178.559 214.187 178.559 214.285 178.559 214.388C178.559 214.491 178.555 214.607 178.545 214.738H172.777V213.828H177.411C177.383 213.184 177.169 212.68 176.767 212.316C176.375 211.952 175.881 211.77 175.283 211.77C174.882 211.77 174.509 211.863 174.163 212.05C173.827 212.227 173.557 212.493 173.351 212.848C173.146 213.193 173.043 213.627 173.043 214.15V214.542C173.043 215.121 173.146 215.606 173.351 215.998C173.566 216.39 173.841 216.684 174.177 216.88C174.523 217.076 174.891 217.174 175.283 217.174C175.778 217.174 176.184 217.067 176.501 216.852C176.828 216.628 177.061 216.329 177.201 215.956H178.363C178.251 216.376 178.055 216.754 177.775 217.09C177.495 217.426 177.145 217.692 176.725 217.888C176.315 218.075 175.834 218.168 175.283 218.168ZM179.846 218V210.944H180.91L180.966 212.176C181.19 211.737 181.508 211.397 181.918 211.154C182.338 210.902 182.814 210.776 183.346 210.776C183.897 210.776 184.373 210.888 184.774 211.112C185.176 211.327 185.488 211.658 185.712 212.106C185.936 212.545 186.048 213.105 186.048 213.786V218H184.872V213.912C184.872 213.203 184.714 212.671 184.396 212.316C184.088 211.961 183.65 211.784 183.08 211.784C182.688 211.784 182.338 211.882 182.03 212.078C181.722 212.265 181.475 212.54 181.288 212.904C181.111 213.259 181.022 213.702 181.022 214.234V218H179.846ZM193.664 218.168C193.076 218.168 192.563 218.07 192.124 217.874C191.695 217.678 191.35 217.407 191.088 217.062C190.836 216.707 190.682 216.292 190.626 215.816H191.83C191.877 216.059 191.975 216.283 192.124 216.488C192.274 216.693 192.474 216.861 192.726 216.992C192.988 217.113 193.305 217.174 193.678 217.174C194.005 217.174 194.276 217.127 194.49 217.034C194.705 216.931 194.864 216.796 194.966 216.628C195.078 216.46 195.134 216.278 195.134 216.082C195.134 215.793 195.064 215.573 194.924 215.424C194.794 215.275 194.598 215.158 194.336 215.074C194.075 214.981 193.758 214.901 193.384 214.836C193.076 214.78 192.773 214.705 192.474 214.612C192.176 214.519 191.91 214.397 191.676 214.248C191.443 214.089 191.256 213.898 191.116 213.674C190.986 213.45 190.92 213.175 190.92 212.848C190.92 212.447 191.023 212.092 191.228 211.784C191.434 211.467 191.728 211.219 192.11 211.042C192.502 210.865 192.955 210.776 193.468 210.776C194.224 210.776 194.836 210.958 195.302 211.322C195.769 211.686 196.044 212.213 196.128 212.904H194.966C194.92 212.549 194.766 212.274 194.504 212.078C194.252 211.873 193.902 211.77 193.454 211.77C193.016 211.77 192.68 211.859 192.446 212.036C192.222 212.213 192.11 212.447 192.11 212.736C192.11 212.923 192.171 213.091 192.292 213.24C192.423 213.38 192.61 213.501 192.852 213.604C193.104 213.707 193.412 213.791 193.776 213.856C194.243 213.94 194.668 214.052 195.05 214.192C195.433 214.332 195.741 214.542 195.974 214.822C196.217 215.093 196.338 215.48 196.338 215.984C196.338 216.423 196.226 216.805 196.002 217.132C195.788 217.459 195.48 217.715 195.078 217.902C194.677 218.079 194.206 218.168 193.664 218.168ZM200.294 218.168C199.752 218.168 199.276 218.061 198.866 217.846C198.464 217.631 198.152 217.3 197.928 216.852C197.713 216.404 197.606 215.844 197.606 215.172V210.944H198.782V215.046C198.782 215.746 198.936 216.273 199.244 216.628C199.552 216.983 199.986 217.16 200.546 217.16C200.938 217.16 201.292 217.067 201.61 216.88C201.927 216.684 202.174 216.409 202.352 216.054C202.538 215.69 202.632 215.247 202.632 214.724V210.944H203.808V218H202.744L202.674 216.768C202.459 217.207 202.142 217.552 201.722 217.804C201.302 218.047 200.826 218.168 200.294 218.168ZM208.635 218.168C207.972 218.168 207.375 218.014 206.843 217.706C206.32 217.398 205.91 216.969 205.611 216.418C205.312 215.858 205.163 215.214 205.163 214.486C205.163 213.739 205.312 213.091 205.611 212.54C205.91 211.989 206.32 211.56 206.843 211.252C207.375 210.935 207.972 210.776 208.635 210.776C209.475 210.776 210.175 210.995 210.735 211.434C211.295 211.863 211.65 212.442 211.799 213.17H210.595C210.502 212.731 210.273 212.391 209.909 212.148C209.545 211.905 209.116 211.784 208.621 211.784C208.22 211.784 207.846 211.887 207.501 212.092C207.156 212.288 206.88 212.587 206.675 212.988C206.47 213.389 206.367 213.884 206.367 214.472C206.367 214.911 206.428 215.303 206.549 215.648C206.67 215.984 206.834 216.264 207.039 216.488C207.244 216.712 207.482 216.885 207.753 217.006C208.033 217.118 208.322 217.174 208.621 217.174C208.957 217.174 209.26 217.123 209.531 217.02C209.802 216.908 210.03 216.745 210.217 216.53C210.404 216.315 210.53 216.063 210.595 215.774H211.799C211.65 216.483 211.29 217.062 210.721 217.51C210.161 217.949 209.466 218.168 208.635 218.168ZM216.347 218.168C215.684 218.168 215.087 218.014 214.555 217.706C214.032 217.398 213.621 216.969 213.323 216.418C213.024 215.858 212.875 215.214 212.875 214.486C212.875 213.739 213.024 213.091 213.323 212.54C213.621 211.989 214.032 211.56 214.555 211.252C215.087 210.935 215.684 210.776 216.347 210.776C217.187 210.776 217.887 210.995 218.447 211.434C219.007 211.863 219.361 212.442 219.511 213.17H218.307C218.213 212.731 217.985 212.391 217.621 212.148C217.257 211.905 216.827 211.784 216.333 211.784C215.931 211.784 215.558 211.887 215.213 212.092C214.867 212.288 214.592 212.587 214.387 212.988C214.181 213.389 214.079 213.884 214.079 214.472C214.079 214.911 214.139 215.303 214.261 215.648C214.382 215.984 214.545 216.264 214.751 216.488C214.956 216.712 215.194 216.885 215.465 217.006C215.745 217.118 216.034 217.174 216.333 217.174C216.669 217.174 216.972 217.123 217.243 217.02C217.513 216.908 217.742 216.745 217.929 216.53C218.115 216.315 218.241 216.063 218.307 215.774H219.511C219.361 216.483 219.002 217.062 218.433 217.51C217.873 217.949 217.177 218.168 216.347 218.168ZM223.974 218.168C223.312 218.168 222.724 218.014 222.21 217.706C221.706 217.398 221.31 216.969 221.02 216.418C220.731 215.858 220.586 215.209 220.586 214.472C220.586 213.725 220.726 213.077 221.006 212.526C221.296 211.975 221.697 211.546 222.21 211.238C222.733 210.93 223.33 210.776 224.002 210.776C224.693 210.776 225.276 210.93 225.752 211.238C226.238 211.546 226.606 211.952 226.858 212.456C227.12 212.951 227.25 213.497 227.25 214.094C227.25 214.187 227.25 214.285 227.25 214.388C227.25 214.491 227.246 214.607 227.236 214.738H221.468V213.828H226.102C226.074 213.184 225.86 212.68 225.458 212.316C225.066 211.952 224.572 211.77 223.974 211.77C223.573 211.77 223.2 211.863 222.854 212.05C222.518 212.227 222.248 212.493 222.042 212.848C221.837 213.193 221.734 213.627 221.734 214.15V214.542C221.734 215.121 221.837 215.606 222.042 215.998C222.257 216.39 222.532 216.684 222.868 216.88C223.214 217.076 223.582 217.174 223.974 217.174C224.469 217.174 224.875 217.067 225.192 216.852C225.519 216.628 225.752 216.329 225.892 215.956H227.054C226.942 216.376 226.746 216.754 226.466 217.09C226.186 217.426 225.836 217.692 225.416 217.888C225.006 218.075 224.525 218.168 223.974 218.168ZM231.197 218.168C230.609 218.168 230.096 218.07 229.657 217.874C229.228 217.678 228.883 217.407 228.621 217.062C228.369 216.707 228.215 216.292 228.159 215.816H229.363C229.41 216.059 229.508 216.283 229.657 216.488C229.807 216.693 230.007 216.861 230.259 216.992C230.521 217.113 230.838 217.174 231.211 217.174C231.538 217.174 231.809 217.127 232.023 217.034C232.238 216.931 232.397 216.796 232.499 216.628C232.611 216.46 232.667 216.278 232.667 216.082C232.667 215.793 232.597 215.573 232.457 215.424C232.327 215.275 232.131 215.158 231.869 215.074C231.608 214.981 231.291 214.901 230.917 214.836C230.609 214.78 230.306 214.705 230.007 214.612C229.709 214.519 229.443 214.397 229.209 214.248C228.976 214.089 228.789 213.898 228.649 213.674C228.519 213.45 228.453 213.175 228.453 212.848C228.453 212.447 228.556 212.092 228.761 211.784C228.967 211.467 229.261 211.219 229.643 211.042C230.035 210.865 230.488 210.776 231.001 210.776C231.757 210.776 232.369 210.958 232.835 211.322C233.302 211.686 233.577 212.213 233.661 212.904H232.499C232.453 212.549 232.299 212.274 232.037 212.078C231.785 211.873 231.435 211.77 230.987 211.77C230.549 211.77 230.213 211.859 229.979 212.036C229.755 212.213 229.643 212.447 229.643 212.736C229.643 212.923 229.704 213.091 229.825 213.24C229.956 213.38 230.143 213.501 230.385 213.604C230.637 213.707 230.945 213.791 231.309 213.856C231.776 213.94 232.201 214.052 232.583 214.192C232.966 214.332 233.274 214.542 233.507 214.822C233.75 215.093 233.871 215.48 233.871 215.984C233.871 216.423 233.759 216.805 233.535 217.132C233.321 217.459 233.013 217.715 232.611 217.902C232.21 218.079 231.739 218.168 231.197 218.168ZM237.925 218.168C237.337 218.168 236.823 218.07 236.385 217.874C235.955 217.678 235.61 217.407 235.349 217.062C235.097 216.707 234.943 216.292 234.887 215.816H236.091C236.137 216.059 236.235 216.283 236.385 216.488C236.534 216.693 236.735 216.861 236.987 216.992C237.248 217.113 237.565 217.174 237.939 217.174C238.265 217.174 238.536 217.127 238.751 217.034C238.965 216.931 239.124 216.796 239.227 216.628C239.339 216.46 239.395 216.278 239.395 216.082C239.395 215.793 239.325 215.573 239.185 215.424C239.054 215.275 238.858 215.158 238.597 215.074C238.335 214.981 238.018 214.901 237.645 214.836C237.337 214.78 237.033 214.705 236.735 214.612C236.436 214.519 236.17 214.397 235.937 214.248C235.703 214.089 235.517 213.898 235.377 213.674C235.246 213.45 235.181 213.175 235.181 212.848C235.181 212.447 235.283 212.092 235.489 211.784C235.694 211.467 235.988 211.219 236.371 211.042C236.763 210.865 237.215 210.776 237.729 210.776C238.485 210.776 239.096 210.958 239.563 211.322C240.029 211.686 240.305 212.213 240.389 212.904H239.227C239.18 212.549 239.026 212.274 238.765 212.078C238.513 211.873 238.163 211.77 237.715 211.77C237.276 211.77 236.94 211.859 236.707 212.036C236.483 212.213 236.371 212.447 236.371 212.736C236.371 212.923 236.431 213.091 236.553 213.24C236.683 213.38 236.87 213.501 237.113 213.604C237.365 213.707 237.673 213.791 238.037 213.856C238.503 213.94 238.928 214.052 239.311 214.192C239.693 214.332 240.001 214.542 240.235 214.822C240.477 215.093 240.599 215.48 240.599 215.984C240.599 216.423 240.487 216.805 240.263 217.132C240.048 217.459 239.74 217.715 239.339 217.902C238.937 218.079 238.466 218.168 237.925 218.168ZM242.384 218V209.852C242.384 209.404 242.459 209.04 242.608 208.76C242.757 208.471 242.977 208.261 243.266 208.13C243.565 207.99 243.929 207.92 244.358 207.92H245.156V208.928H244.54C244.195 208.928 243.943 208.998 243.784 209.138C243.635 209.278 243.56 209.525 243.56 209.88V218H242.384ZM241.306 211.938V210.944H245.338V211.938H241.306ZM249.012 218.168C248.471 218.168 247.995 218.061 247.584 217.846C247.183 217.631 246.87 217.3 246.646 216.852C246.431 216.404 246.324 215.844 246.324 215.172V210.944H247.5V215.046C247.5 215.746 247.654 216.273 247.962 216.628C248.27 216.983 248.704 217.16 249.264 217.16C249.656 217.16 250.011 217.067 250.328 216.88C250.645 216.684 250.893 216.409 251.07 216.054C251.257 215.69 251.35 215.247 251.35 214.724V210.944H252.526V218H251.462L251.392 216.768C251.177 217.207 250.86 217.552 250.44 217.804C250.02 218.047 249.544 218.168 249.012 218.168ZM254.175 218V207.92H255.351V218H254.175ZM256.992 218V207.92H258.168V218H256.992ZM260.58 221.08L262.302 217.216H261.896L259.124 210.944H260.398L262.694 216.334L265.102 210.944H266.32L261.812 221.08H260.58ZM270.708 218V210.944H271.772L271.856 212.288C272.014 211.971 272.215 211.7 272.458 211.476C272.71 211.252 273.008 211.079 273.354 210.958C273.708 210.837 274.11 210.776 274.558 210.776V212.008H274.124C273.825 212.008 273.54 212.05 273.27 212.134C272.999 212.209 272.756 212.335 272.542 212.512C272.336 212.689 272.173 212.932 272.052 213.24C271.94 213.539 271.884 213.912 271.884 214.36V218H270.708ZM278.424 218.168C277.761 218.168 277.173 218.014 276.66 217.706C276.156 217.398 275.759 216.969 275.47 216.418C275.18 215.858 275.036 215.209 275.036 214.472C275.036 213.725 275.176 213.077 275.456 212.526C275.745 211.975 276.146 211.546 276.66 211.238C277.182 210.93 277.78 210.776 278.452 210.776C279.142 210.776 279.726 210.93 280.202 211.238C280.687 211.546 281.056 211.952 281.308 212.456C281.569 212.951 281.7 213.497 281.7 214.094C281.7 214.187 281.7 214.285 281.7 214.388C281.7 214.491 281.695 214.607 281.686 214.738H275.918V213.828H280.552C280.524 213.184 280.309 212.68 279.908 212.316C279.516 211.952 279.021 211.77 278.424 211.77C278.022 211.77 277.649 211.863 277.304 212.05C276.968 212.227 276.697 212.493 276.492 212.848C276.286 213.193 276.184 213.627 276.184 214.15V214.542C276.184 215.121 276.286 215.606 276.492 215.998C276.706 216.39 276.982 216.684 277.318 216.88C277.663 217.076 278.032 217.174 278.424 217.174C278.918 217.174 279.324 217.067 279.642 216.852C279.968 216.628 280.202 216.329 280.342 215.956H281.504C281.392 216.376 281.196 216.754 280.916 217.09C280.636 217.426 280.286 217.692 279.866 217.888C279.455 218.075 278.974 218.168 278.424 218.168ZM285.647 218.168C285.059 218.168 284.545 218.07 284.107 217.874C283.677 217.678 283.332 217.407 283.071 217.062C282.819 216.707 282.665 216.292 282.609 215.816H283.813C283.859 216.059 283.957 216.283 284.107 216.488C284.256 216.693 284.457 216.861 284.709 216.992C284.97 217.113 285.287 217.174 285.661 217.174C285.987 217.174 286.258 217.127 286.473 217.034C286.687 216.931 286.846 216.796 286.949 216.628C287.061 216.46 287.117 216.278 287.117 216.082C287.117 215.793 287.047 215.573 286.907 215.424C286.776 215.275 286.58 215.158 286.319 215.074C286.057 214.981 285.74 214.901 285.367 214.836C285.059 214.78 284.755 214.705 284.457 214.612C284.158 214.519 283.892 214.397 283.659 214.248C283.425 214.089 283.239 213.898 283.099 213.674C282.968 213.45 282.903 213.175 282.903 212.848C282.903 212.447 283.005 212.092 283.211 211.784C283.416 211.467 283.71 211.219 284.093 211.042C284.485 210.865 284.937 210.776 285.451 210.776C286.207 210.776 286.818 210.958 287.285 211.322C287.751 211.686 288.027 212.213 288.111 212.904H286.949C286.902 212.549 286.748 212.274 286.487 212.078C286.235 211.873 285.885 211.77 285.437 211.77C284.998 211.77 284.662 211.859 284.429 212.036C284.205 212.213 284.093 212.447 284.093 212.736C284.093 212.923 284.153 213.091 284.275 213.24C284.405 213.38 284.592 213.501 284.835 213.604C285.087 213.707 285.395 213.791 285.759 213.856C286.225 213.94 286.65 214.052 287.033 214.192C287.415 214.332 287.723 214.542 287.957 214.822C288.199 215.093 288.321 215.48 288.321 215.984C288.321 216.423 288.209 216.805 287.985 217.132C287.77 217.459 287.462 217.715 287.061 217.902C286.659 218.079 286.188 218.168 285.647 218.168ZM292.808 218.168C292.145 218.168 291.557 218.014 291.044 217.706C290.54 217.398 290.143 216.969 289.854 216.418C289.565 215.858 289.42 215.209 289.42 214.472C289.42 213.725 289.56 213.077 289.84 212.526C290.129 211.975 290.531 211.546 291.044 211.238C291.567 210.93 292.164 210.776 292.836 210.776C293.527 210.776 294.11 210.93 294.586 211.238C295.071 211.546 295.44 211.952 295.692 212.456C295.953 212.951 296.084 213.497 296.084 214.094C296.084 214.187 296.084 214.285 296.084 214.388C296.084 214.491 296.079 214.607 296.07 214.738H290.302V213.828H294.936C294.908 213.184 294.693 212.68 294.292 212.316C293.9 211.952 293.405 211.77 292.808 211.77C292.407 211.77 292.033 211.863 291.688 212.05C291.352 212.227 291.081 212.493 290.876 212.848C290.671 213.193 290.568 213.627 290.568 214.15V214.542C290.568 215.121 290.671 215.606 290.876 215.998C291.091 216.39 291.366 216.684 291.702 216.88C292.047 217.076 292.416 217.174 292.808 217.174C293.303 217.174 293.709 217.067 294.026 216.852C294.353 216.628 294.586 216.329 294.726 215.956H295.888C295.776 216.376 295.58 216.754 295.3 217.09C295.02 217.426 294.67 217.692 294.25 217.888C293.839 218.075 293.359 218.168 292.808 218.168ZM297.371 218V210.944H298.435L298.519 212.288C298.678 211.971 298.878 211.7 299.121 211.476C299.373 211.252 299.672 211.079 300.017 210.958C300.372 210.837 300.773 210.776 301.221 210.776V212.008H300.787C300.488 212.008 300.204 212.05 299.933 212.134C299.662 212.209 299.42 212.335 299.205 212.512C299 212.689 298.836 212.932 298.715 213.24C298.603 213.539 298.547 213.912 298.547 214.36V218H297.371ZM304.283 218L301.609 210.944H302.841L304.969 216.866L307.111 210.944H308.315L305.641 218H304.283ZM312.074 218.168C311.411 218.168 310.823 218.014 310.31 217.706C309.806 217.398 309.409 216.969 309.12 216.418C308.831 215.858 308.686 215.209 308.686 214.472C308.686 213.725 308.826 213.077 309.106 212.526C309.395 211.975 309.797 211.546 310.31 211.238C310.833 210.93 311.43 210.776 312.102 210.776C312.793 210.776 313.376 210.93 313.852 211.238C314.337 211.546 314.706 211.952 314.958 212.456C315.219 212.951 315.35 213.497 315.35 214.094C315.35 214.187 315.35 214.285 315.35 214.388C315.35 214.491 315.345 214.607 315.336 214.738H309.568V213.828H314.202C314.174 213.184 313.959 212.68 313.558 212.316C313.166 211.952 312.671 211.77 312.074 211.77C311.673 211.77 311.299 211.863 310.954 212.05C310.618 212.227 310.347 212.493 310.142 212.848C309.937 213.193 309.834 213.627 309.834 214.15V214.542C309.834 215.121 309.937 215.606 310.142 215.998C310.357 216.39 310.632 216.684 310.968 216.88C311.313 217.076 311.682 217.174 312.074 217.174C312.569 217.174 312.975 217.067 313.292 216.852C313.619 216.628 313.852 216.329 313.992 215.956H315.154C315.042 216.376 314.846 216.754 314.566 217.09C314.286 217.426 313.936 217.692 313.516 217.888C313.105 218.075 312.625 218.168 312.074 218.168ZM319.745 218.168C319.064 218.168 318.466 218.009 317.953 217.692C317.44 217.365 317.043 216.922 316.763 216.362C316.483 215.802 316.343 215.167 316.343 214.458C316.343 213.749 316.483 213.119 316.763 212.568C317.043 212.008 317.44 211.569 317.953 211.252C318.476 210.935 319.078 210.776 319.759 210.776C320.338 210.776 320.842 210.893 321.271 211.126C321.71 211.359 322.046 211.686 322.279 212.106V207.92H323.455V218H322.391L322.293 216.838C322.144 217.071 321.952 217.291 321.719 217.496C321.486 217.692 321.206 217.855 320.879 217.986C320.552 218.107 320.174 218.168 319.745 218.168ZM319.885 217.146C320.352 217.146 320.762 217.034 321.117 216.81C321.472 216.586 321.747 216.278 321.943 215.886C322.139 215.485 322.237 215.013 322.237 214.472C322.237 213.94 322.139 213.473 321.943 213.072C321.747 212.671 321.472 212.358 321.117 212.134C320.762 211.91 320.352 211.798 319.885 211.798C319.428 211.798 319.022 211.91 318.667 212.134C318.312 212.358 318.037 212.671 317.841 213.072C317.645 213.473 317.547 213.94 317.547 214.472C317.547 215.013 317.645 215.485 317.841 215.886C318.037 216.278 318.312 216.586 318.667 216.81C319.022 217.034 319.428 217.146 319.885 217.146ZM328.925 218V209.852C328.925 209.404 329 209.04 329.149 208.76C329.298 208.471 329.518 208.261 329.807 208.13C330.106 207.99 330.47 207.92 330.899 207.92H331.697V208.928H331.081C330.736 208.928 330.484 208.998 330.325 209.138C330.176 209.278 330.101 209.525 330.101 209.88V218H328.925ZM327.847 211.938V210.944H331.879V211.938H327.847ZM335.867 218.168C335.214 218.168 334.626 218.019 334.103 217.72C333.581 217.412 333.17 216.983 332.871 216.432C332.573 215.872 332.423 215.223 332.423 214.486C332.423 213.73 332.573 213.077 332.871 212.526C333.179 211.966 333.595 211.537 334.117 211.238C334.649 210.93 335.242 210.776 335.895 210.776C336.567 210.776 337.16 210.93 337.673 211.238C338.196 211.537 338.607 211.966 338.905 212.526C339.213 213.077 339.367 213.725 339.367 214.472C339.367 215.219 339.213 215.872 338.905 216.432C338.597 216.983 338.182 217.412 337.659 217.72C337.137 218.019 336.539 218.168 335.867 218.168ZM335.881 217.16C336.283 217.16 336.656 217.062 337.001 216.866C337.347 216.661 337.627 216.357 337.841 215.956C338.056 215.555 338.163 215.06 338.163 214.472C338.163 213.875 338.056 213.38 337.841 212.988C337.636 212.587 337.361 212.288 337.015 212.092C336.679 211.887 336.306 211.784 335.895 211.784C335.503 211.784 335.13 211.887 334.775 212.092C334.43 212.288 334.15 212.587 333.935 212.988C333.73 213.38 333.627 213.875 333.627 214.472C333.627 215.06 333.73 215.555 333.935 215.956C334.15 216.357 334.425 216.661 334.761 216.866C335.107 217.062 335.48 217.16 335.881 217.16ZM340.716 218V210.944H341.78L341.864 212.288C342.023 211.971 342.224 211.7 342.466 211.476C342.718 211.252 343.017 211.079 343.362 210.958C343.717 210.837 344.118 210.776 344.566 210.776V212.008H344.132C343.834 212.008 343.549 212.05 343.278 212.134C343.008 212.209 342.765 212.335 342.55 212.512C342.345 212.689 342.182 212.932 342.06 213.24C341.948 213.539 341.892 213.912 341.892 214.36V218H340.716ZM349.787 221.08L351.509 217.216H351.103L348.331 210.944H349.605L351.901 216.334L354.309 210.944H355.527L351.019 221.08H349.787ZM358.99 218.168C358.336 218.168 357.748 218.019 357.226 217.72C356.703 217.412 356.292 216.983 355.994 216.432C355.695 215.872 355.546 215.223 355.546 214.486C355.546 213.73 355.695 213.077 355.994 212.526C356.302 211.966 356.717 211.537 357.24 211.238C357.772 210.93 358.364 210.776 359.018 210.776C359.69 210.776 360.282 210.93 360.796 211.238C361.318 211.537 361.729 211.966 362.028 212.526C362.336 213.077 362.49 213.725 362.49 214.472C362.49 215.219 362.336 215.872 362.028 216.432C361.72 216.983 361.304 217.412 360.782 217.72C360.259 218.019 359.662 218.168 358.99 218.168ZM359.004 217.16C359.405 217.16 359.778 217.062 360.124 216.866C360.469 216.661 360.749 216.357 360.964 215.956C361.178 215.555 361.286 215.06 361.286 214.472C361.286 213.875 361.178 213.38 360.964 212.988C360.758 212.587 360.483 212.288 360.138 212.092C359.802 211.887 359.428 211.784 359.018 211.784C358.626 211.784 358.252 211.887 357.898 212.092C357.552 212.288 357.272 212.587 357.058 212.988C356.852 213.38 356.75 213.875 356.75 214.472C356.75 215.06 356.852 215.555 357.058 215.956C357.272 216.357 357.548 216.661 357.884 216.866C358.229 217.062 358.602 217.16 359.004 217.16ZM366.401 218.168C365.859 218.168 365.383 218.061 364.973 217.846C364.571 217.631 364.259 217.3 364.035 216.852C363.82 216.404 363.713 215.844 363.713 215.172V210.944H364.889V215.046C364.889 215.746 365.043 216.273 365.351 216.628C365.659 216.983 366.093 217.16 366.653 217.16C367.045 217.16 367.399 217.067 367.717 216.88C368.034 216.684 368.281 216.409 368.459 216.054C368.645 215.69 368.739 215.247 368.739 214.724V210.944H369.915V218H368.851L368.781 216.768C368.566 217.207 368.249 217.552 367.829 217.804C367.409 218.047 366.933 218.168 366.401 218.168ZM371.564 218V210.944H372.628L372.712 212.288C372.871 211.971 373.071 211.7 373.314 211.476C373.566 211.252 373.865 211.079 374.21 210.958C374.565 210.837 374.966 210.776 375.414 210.776V212.008H374.98C374.681 212.008 374.397 212.05 374.126 212.134C373.855 212.209 373.613 212.335 373.398 212.512C373.193 212.689 373.029 212.932 372.908 213.24C372.796 213.539 372.74 213.912 372.74 214.36V218H371.564ZM382.524 218.168C381.936 218.168 381.423 218.07 380.984 217.874C380.555 217.678 380.21 217.407 379.948 217.062C379.696 216.707 379.542 216.292 379.486 215.816H380.69C380.737 216.059 380.835 216.283 380.984 216.488C381.134 216.693 381.334 216.861 381.586 216.992C381.848 217.113 382.165 217.174 382.538 217.174C382.865 217.174 383.136 217.127 383.35 217.034C383.565 216.931 383.724 216.796 383.826 216.628C383.938 216.46 383.994 216.278 383.994 216.082C383.994 215.793 383.924 215.573 383.784 215.424C383.654 215.275 383.458 215.158 383.196 215.074C382.935 214.981 382.618 214.901 382.244 214.836C381.936 214.78 381.633 214.705 381.334 214.612C381.036 214.519 380.77 214.397 380.536 214.248C380.303 214.089 380.116 213.898 379.976 213.674C379.846 213.45 379.78 213.175 379.78 212.848C379.78 212.447 379.883 212.092 380.088 211.784C380.294 211.467 380.588 211.219 380.97 211.042C381.362 210.865 381.815 210.776 382.328 210.776C383.084 210.776 383.696 210.958 384.162 211.322C384.629 211.686 384.904 212.213 384.988 212.904H383.826C383.78 212.549 383.626 212.274 383.364 212.078C383.112 211.873 382.762 211.77 382.314 211.77C381.876 211.77 381.54 211.859 381.306 212.036C381.082 212.213 380.97 212.447 380.97 212.736C380.97 212.923 381.031 213.091 381.152 213.24C381.283 213.38 381.47 213.501 381.712 213.604C381.964 213.707 382.272 213.791 382.636 213.856C383.103 213.94 383.528 214.052 383.91 214.192C384.293 214.332 384.601 214.542 384.834 214.822C385.077 215.093 385.198 215.48 385.198 215.984C385.198 216.423 385.086 216.805 384.862 217.132C384.648 217.459 384.34 217.715 383.938 217.902C383.537 218.079 383.066 218.168 382.524 218.168ZM389.686 218.168C389.023 218.168 388.435 218.014 387.922 217.706C387.418 217.398 387.021 216.969 386.732 216.418C386.442 215.858 386.298 215.209 386.298 214.472C386.298 213.725 386.438 213.077 386.718 212.526C387.007 211.975 387.408 211.546 387.922 211.238C388.444 210.93 389.042 210.776 389.714 210.776C390.404 210.776 390.988 210.93 391.464 211.238C391.949 211.546 392.318 211.952 392.57 212.456C392.831 212.951 392.962 213.497 392.962 214.094C392.962 214.187 392.962 214.285 392.962 214.388C392.962 214.491 392.957 214.607 392.948 214.738H387.18V213.828H391.814C391.786 213.184 391.571 212.68 391.17 212.316C390.778 211.952 390.283 211.77 389.686 211.77C389.284 211.77 388.911 211.863 388.566 212.05C388.23 212.227 387.959 212.493 387.754 212.848C387.548 213.193 387.446 213.627 387.446 214.15V214.542C387.446 215.121 387.548 215.606 387.754 215.998C387.968 216.39 388.244 216.684 388.58 216.88C388.925 217.076 389.294 217.174 389.686 217.174C390.18 217.174 390.586 217.067 390.904 216.852C391.23 216.628 391.464 216.329 391.604 215.956H392.766C392.654 216.376 392.458 216.754 392.178 217.09C391.898 217.426 391.548 217.692 391.128 217.888C390.717 218.075 390.236 218.168 389.686 218.168ZM394.249 218V207.92H395.425V218H394.249ZM400.16 218.168C399.497 218.168 398.909 218.014 398.396 217.706C397.892 217.398 397.495 216.969 397.206 216.418C396.917 215.858 396.772 215.209 396.772 214.472C396.772 213.725 396.912 213.077 397.192 212.526C397.481 211.975 397.883 211.546 398.396 211.238C398.919 210.93 399.516 210.776 400.188 210.776C400.879 210.776 401.462 210.93 401.938 211.238C402.423 211.546 402.792 211.952 403.044 212.456C403.305 212.951 403.436 213.497 403.436 214.094C403.436 214.187 403.436 214.285 403.436 214.388C403.436 214.491 403.431 214.607 403.422 214.738H397.654V213.828H402.288C402.26 213.184 402.045 212.68 401.644 212.316C401.252 211.952 400.757 211.77 400.16 211.77C399.759 211.77 399.385 211.863 399.04 212.05C398.704 212.227 398.433 212.493 398.228 212.848C398.023 213.193 397.92 213.627 397.92 214.15V214.542C397.92 215.121 398.023 215.606 398.228 215.998C398.443 216.39 398.718 216.684 399.054 216.88C399.399 217.076 399.768 217.174 400.16 217.174C400.655 217.174 401.061 217.067 401.378 216.852C401.705 216.628 401.938 216.329 402.078 215.956H403.24C403.128 216.376 402.932 216.754 402.652 217.09C402.372 217.426 402.022 217.692 401.602 217.888C401.191 218.075 400.711 218.168 400.16 218.168ZM407.901 218.168C407.238 218.168 406.641 218.014 406.109 217.706C405.586 217.398 405.176 216.969 404.877 216.418C404.578 215.858 404.429 215.214 404.429 214.486C404.429 213.739 404.578 213.091 404.877 212.54C405.176 211.989 405.586 211.56 406.109 211.252C406.641 210.935 407.238 210.776 407.901 210.776C408.741 210.776 409.441 210.995 410.001 211.434C410.561 211.863 410.916 212.442 411.065 213.17H409.861C409.768 212.731 409.539 212.391 409.175 212.148C408.811 211.905 408.382 211.784 407.887 211.784C407.486 211.784 407.112 211.887 406.767 212.092C406.422 212.288 406.146 212.587 405.941 212.988C405.736 213.389 405.633 213.884 405.633 214.472C405.633 214.911 405.694 215.303 405.815 215.648C405.936 215.984 406.1 216.264 406.305 216.488C406.51 216.712 406.748 216.885 407.019 217.006C407.299 217.118 407.588 217.174 407.887 217.174C408.223 217.174 408.526 217.123 408.797 217.02C409.068 216.908 409.296 216.745 409.483 216.53C409.67 216.315 409.796 216.063 409.861 215.774H411.065C410.916 216.483 410.556 217.062 409.987 217.51C409.427 217.949 408.732 218.168 407.901 218.168ZM415.015 218C414.595 218 414.231 217.935 413.923 217.804C413.615 217.673 413.377 217.454 413.209 217.146C413.051 216.829 412.971 216.404 412.971 215.872V211.938H411.739V210.944H412.971L413.125 209.236H414.147V210.944H416.191V211.938H414.147V215.872C414.147 216.311 414.236 216.609 414.413 216.768C414.591 216.917 414.903 216.992 415.351 216.992H416.107V218H415.015ZM420.328 218.168C419.666 218.168 419.078 218.014 418.564 217.706C418.06 217.398 417.664 216.969 417.374 216.418C417.085 215.858 416.94 215.209 416.94 214.472C416.94 213.725 417.08 213.077 417.36 212.526C417.65 211.975 418.051 211.546 418.564 211.238C419.087 210.93 419.684 210.776 420.356 210.776C421.047 210.776 421.63 210.93 422.106 211.238C422.592 211.546 422.96 211.952 423.212 212.456C423.474 212.951 423.604 213.497 423.604 214.094C423.604 214.187 423.604 214.285 423.604 214.388C423.604 214.491 423.6 214.607 423.59 214.738H417.822V213.828H422.456C422.428 213.184 422.214 212.68 421.812 212.316C421.42 211.952 420.926 211.77 420.328 211.77C419.927 211.77 419.554 211.863 419.208 212.05C418.872 212.227 418.602 212.493 418.396 212.848C418.191 213.193 418.088 213.627 418.088 214.15V214.542C418.088 215.121 418.191 215.606 418.396 215.998C418.611 216.39 418.886 216.684 419.222 216.88C419.568 217.076 419.936 217.174 420.328 217.174C420.823 217.174 421.229 217.067 421.546 216.852C421.873 216.628 422.106 216.329 422.246 215.956H423.408C423.296 216.376 423.1 216.754 422.82 217.09C422.54 217.426 422.19 217.692 421.77 217.888C421.36 218.075 420.879 218.168 420.328 218.168ZM427.999 218.168C427.318 218.168 426.721 218.009 426.207 217.692C425.694 217.365 425.297 216.922 425.017 216.362C424.737 215.802 424.597 215.167 424.597 214.458C424.597 213.749 424.737 213.119 425.017 212.568C425.297 212.008 425.694 211.569 426.207 211.252C426.73 210.935 427.332 210.776 428.013 210.776C428.592 210.776 429.096 210.893 429.525 211.126C429.964 211.359 430.3 211.686 430.533 212.106V207.92H431.709V218H430.645L430.547 216.838C430.398 217.071 430.207 217.291 429.973 217.496C429.74 217.692 429.46 217.855 429.133 217.986C428.807 218.107 428.429 218.168 427.999 218.168ZM428.139 217.146C428.606 217.146 429.017 217.034 429.371 216.81C429.726 216.586 430.001 216.278 430.197 215.886C430.393 215.485 430.491 215.013 430.491 214.472C430.491 213.94 430.393 213.473 430.197 213.072C430.001 212.671 429.726 212.358 429.371 212.134C429.017 211.91 428.606 211.798 428.139 211.798C427.682 211.798 427.276 211.91 426.921 212.134C426.567 212.358 426.291 212.671 426.095 213.072C425.899 213.473 425.801 213.94 425.801 214.472C425.801 215.013 425.899 215.485 426.095 215.886C426.291 216.278 426.567 216.586 426.921 216.81C427.276 217.034 427.682 217.146 428.139 217.146ZM439.895 218.168C439.214 218.168 438.617 218.009 438.103 217.692C437.59 217.365 437.193 216.922 436.913 216.362C436.633 215.802 436.493 215.167 436.493 214.458C436.493 213.749 436.633 213.119 436.913 212.568C437.193 212.008 437.59 211.569 438.103 211.252C438.626 210.935 439.228 210.776 439.909 210.776C440.488 210.776 440.992 210.893 441.421 211.126C441.86 211.359 442.196 211.686 442.429 212.106V207.92H443.605V218H442.541L442.443 216.838C442.294 217.071 442.103 217.291 441.869 217.496C441.636 217.692 441.356 217.855 441.029 217.986C440.703 218.107 440.325 218.168 439.895 218.168ZM440.035 217.146C440.502 217.146 440.913 217.034 441.267 216.81C441.622 216.586 441.897 216.278 442.093 215.886C442.289 215.485 442.387 215.013 442.387 214.472C442.387 213.94 442.289 213.473 442.093 213.072C441.897 212.671 441.622 212.358 441.267 212.134C440.913 211.91 440.502 211.798 440.035 211.798C439.578 211.798 439.172 211.91 438.817 212.134C438.463 212.358 438.187 212.671 437.991 213.072C437.795 213.473 437.697 213.94 437.697 214.472C437.697 215.013 437.795 215.485 437.991 215.886C438.187 216.278 438.463 216.586 438.817 216.81C439.172 217.034 439.578 217.146 440.035 217.146ZM447.561 218.168C446.991 218.168 446.515 218.07 446.133 217.874C445.75 217.669 445.465 217.403 445.279 217.076C445.092 216.74 444.999 216.376 444.999 215.984C444.999 215.508 445.12 215.107 445.363 214.78C445.615 214.444 445.965 214.192 446.413 214.024C446.87 213.847 447.407 213.758 448.023 213.758H449.885C449.885 213.319 449.815 212.955 449.675 212.666C449.544 212.367 449.348 212.143 449.087 211.994C448.835 211.845 448.517 211.77 448.135 211.77C447.687 211.77 447.299 211.882 446.973 212.106C446.646 212.33 446.445 212.661 446.371 213.1H445.167C445.223 212.596 445.391 212.176 445.671 211.84C445.96 211.495 446.324 211.233 446.763 211.056C447.201 210.869 447.659 210.776 448.135 210.776C448.788 210.776 449.329 210.897 449.759 211.14C450.197 211.373 450.524 211.705 450.739 212.134C450.953 212.554 451.061 213.053 451.061 213.632V218H450.011L449.941 216.754C449.847 216.95 449.726 217.137 449.577 217.314C449.437 217.482 449.269 217.631 449.073 217.762C448.877 217.883 448.653 217.981 448.401 218.056C448.158 218.131 447.878 218.168 447.561 218.168ZM447.743 217.174C448.069 217.174 448.363 217.109 448.625 216.978C448.895 216.838 449.124 216.651 449.311 216.418C449.497 216.175 449.637 215.909 449.731 215.62C449.833 215.331 449.885 215.027 449.885 214.71V214.668H448.121C447.663 214.668 447.295 214.724 447.015 214.836C446.735 214.939 446.534 215.088 446.413 215.284C446.291 215.471 446.231 215.685 446.231 215.928C446.231 216.18 446.287 216.399 446.399 216.586C446.52 216.773 446.693 216.917 446.917 217.02C447.15 217.123 447.425 217.174 447.743 217.174ZM455.161 218C454.741 218 454.377 217.935 454.069 217.804C453.761 217.673 453.523 217.454 453.355 217.146C453.196 216.829 453.117 216.404 453.117 215.872V211.938H451.885V210.944H453.117L453.271 209.236H454.293V210.944H456.337V211.938H454.293V215.872C454.293 216.311 454.381 216.609 454.559 216.768C454.736 216.917 455.049 216.992 455.497 216.992H456.253V218H455.161ZM460.474 218.168C459.811 218.168 459.223 218.014 458.71 217.706C458.206 217.398 457.809 216.969 457.52 216.418C457.23 215.858 457.086 215.209 457.086 214.472C457.086 213.725 457.226 213.077 457.506 212.526C457.795 211.975 458.196 211.546 458.71 211.238C459.232 210.93 459.83 210.776 460.502 210.776C461.192 210.776 461.776 210.93 462.252 211.238C462.737 211.546 463.106 211.952 463.358 212.456C463.619 212.951 463.75 213.497 463.75 214.094C463.75 214.187 463.75 214.285 463.75 214.388C463.75 214.491 463.745 214.607 463.736 214.738H457.968V213.828H462.602C462.574 213.184 462.359 212.68 461.958 212.316C461.566 211.952 461.071 211.77 460.474 211.77C460.072 211.77 459.699 211.863 459.354 212.05C459.018 212.227 458.747 212.493 458.542 212.848C458.336 213.193 458.234 213.627 458.234 214.15V214.542C458.234 215.121 458.336 215.606 458.542 215.998C458.756 216.39 459.032 216.684 459.368 216.88C459.713 217.076 460.082 217.174 460.474 217.174C460.968 217.174 461.374 217.067 461.692 216.852C462.018 216.628 462.252 216.329 462.392 215.956H463.554C463.442 216.376 463.246 216.754 462.966 217.09C462.686 217.426 462.336 217.692 461.916 217.888C461.505 218.075 461.024 218.168 460.474 218.168ZM467.697 218.168C467.109 218.168 466.595 218.07 466.157 217.874C465.727 217.678 465.382 217.407 465.121 217.062C464.869 216.707 464.715 216.292 464.659 215.816H465.863C465.909 216.059 466.007 216.283 466.157 216.488C466.306 216.693 466.507 216.861 466.759 216.992C467.02 217.113 467.337 217.174 467.711 217.174C468.037 217.174 468.308 217.127 468.523 217.034C468.737 216.931 468.896 216.796 468.999 216.628C469.111 216.46 469.167 216.278 469.167 216.082C469.167 215.793 469.097 215.573 468.957 215.424C468.826 215.275 468.63 215.158 468.369 215.074C468.107 214.981 467.79 214.901 467.417 214.836C467.109 214.78 466.805 214.705 466.507 214.612C466.208 214.519 465.942 214.397 465.709 214.248C465.475 214.089 465.289 213.898 465.149 213.674C465.018 213.45 464.953 213.175 464.953 212.848C464.953 212.447 465.055 212.092 465.261 211.784C465.466 211.467 465.76 211.219 466.143 211.042C466.535 210.865 466.987 210.776 467.501 210.776C468.257 210.776 468.868 210.958 469.335 211.322C469.801 211.686 470.077 212.213 470.161 212.904H468.999C468.952 212.549 468.798 212.274 468.537 212.078C468.285 211.873 467.935 211.77 467.487 211.77C467.048 211.77 466.712 211.859 466.479 212.036C466.255 212.213 466.143 212.447 466.143 212.736C466.143 212.923 466.203 213.091 466.325 213.24C466.455 213.38 466.642 213.501 466.885 213.604C467.137 213.707 467.445 213.791 467.809 213.856C468.275 213.94 468.7 214.052 469.083 214.192C469.465 214.332 469.773 214.542 470.007 214.822C470.249 215.093 470.371 215.48 470.371 215.984C470.371 216.423 470.259 216.805 470.035 217.132C469.82 217.459 469.512 217.715 469.111 217.902C468.709 218.079 468.238 218.168 467.697 218.168ZM472.184 218.07C471.951 218.07 471.755 217.995 471.596 217.846C471.447 217.687 471.372 217.496 471.372 217.272C471.372 217.048 471.447 216.861 471.596 216.712C471.755 216.553 471.951 216.474 472.184 216.474C472.417 216.474 472.609 216.553 472.758 216.712C472.907 216.861 472.982 217.048 472.982 217.272C472.982 217.496 472.907 217.687 472.758 217.846C472.609 217.995 472.417 218.07 472.184 218.07Z" fill="#868C98"/>
</svg>
