<svg width="34" height="34" viewBox="0 0 34 34" fill="none" xmlns="http://www.w3.org/2000/svg">
<path d="M16.6885 0C7.49312 0 0 7.49312 0 16.6885C0 25.8838 7.49312 33.3769 16.6885 33.3769C25.8838 33.3769 33.3769 25.8838 33.3769 16.6885C33.3769 7.49312 25.8838 0 16.6885 0ZM24.6656 12.8501L15.2032 22.3125C14.9696 22.5461 14.6525 22.6796 14.3187 22.6796C13.9849 22.6796 13.6679 22.5461 13.4342 22.3125L8.71138 17.5896C8.22741 17.1057 8.22741 16.3046 8.71138 15.8207C9.19534 15.3367 9.99639 15.3367 10.4804 15.8207L14.3187 19.659L22.8966 11.0811C23.3805 10.5972 24.1816 10.5972 24.6656 11.0811C25.1495 11.5651 25.1495 12.3495 24.6656 12.8501Z" fill="#21C650"/>
</svg>
