<svg width="32" height="32" viewBox="0 0 32 32" fill="none" xmlns="http://www.w3.org/2000/svg">
<path d="M26.0188 20.8H26.4C26.8243 20.8 27.2313 20.6315 27.5314 20.3314C27.8314 20.0313 28 19.6244 28 19.2V18.4C28 15.7492 25.8508 13.6 23.2 13.6H6.8C6.05739 13.6 5.3452 13.895 4.8201 14.4201C4.295 14.9452 4 15.6574 4 16.4V19.2C4 19.6244 4.16857 20.0313 4.46863 20.3314C4.76869 20.6315 5.17565 20.8 5.6 20.8H5.9812M19.5812 20.8H12.4188" stroke="#868C98" stroke-width="0.4" stroke-linecap="round" stroke-linejoin="round"/>
<path d="M23.3977 13.6C23.4173 13.5999 23.4365 13.5946 23.4534 13.5846C23.4702 13.5745 23.484 13.5602 23.4934 13.543C23.5028 13.5258 23.5074 13.5064 23.5068 13.4868C23.5061 13.4672 23.5003 13.4481 23.4897 13.4316L20.4497 8.67641C20.1604 8.22381 19.7618 7.85133 19.2906 7.59331C18.8195 7.33529 18.2909 7.20004 17.7537 7.20001H11.4865C10.8429 7.19998 10.2143 7.39403 9.68264 7.75682C9.15101 8.11961 8.74114 8.63428 8.50654 9.23361L6.87054 13.4136C6.86228 13.4343 6.85924 13.4567 6.86167 13.4789C6.86411 13.501 6.87196 13.5223 6.88452 13.5407C6.89709 13.5591 6.91398 13.5741 6.93373 13.5845C6.95347 13.5948 6.97545 13.6002 6.99774 13.6M13.1977 13.6V7.20001M7.79054 18.2776C8.17429 18.0928 8.59068 17.9854 9.01594 17.9615C9.44119 17.9377 9.86699 17.9978 10.269 18.1385C10.671 18.2791 11.0414 18.4976 11.359 18.7815C11.6766 19.0653 11.9351 19.4089 12.1199 19.7926C12.3047 20.1764 12.4121 20.5928 12.436 21.018C12.4599 21.4433 12.3998 21.8691 12.2591 22.2711C12.1184 22.6731 11.8999 23.0435 11.6161 23.3611C11.3323 23.6786 10.9887 23.9372 10.6049 24.122C9.83027 24.493 8.94007 24.5415 8.12966 24.257C7.31925 23.9724 6.65481 23.378 6.28213 22.6041C5.90945 21.8303 5.85897 20.9402 6.14175 20.1292C6.42454 19.3181 7.0175 18.652 7.79054 18.2776ZM21.3905 18.2776C22.1656 17.9044 23.0571 17.8543 23.869 18.1385C24.6809 18.4226 25.3467 19.0176 25.7199 19.7926C26.0932 20.5676 26.1432 21.4592 25.8591 22.2711C25.575 23.083 24.98 23.7488 24.2049 24.122C23.4303 24.493 22.5401 24.5415 21.7297 24.257C20.9192 23.9724 20.2548 23.378 19.8821 22.6041C19.5095 21.8303 19.459 20.9402 19.7418 20.1292C20.0245 19.3181 20.6175 18.652 21.3905 18.2776Z" stroke="#868C98" stroke-width="0.4" stroke-linecap="round" stroke-linejoin="round"/>
</svg>
