<svg width="160" height="50" viewBox="0 0 160 50" fill="none" xmlns="http://www.w3.org/2000/svg">
<path d="M3.98047 24.6766L16.7168 2.9187H144.08L156.816 24.6766L144.08 46.4345H16.7168L3.98047 24.6766Z" fill="white" stroke="#111111" stroke-width="2.12272"/>
<path d="M36.4836 32.7427H30.9647L33.5141 17.3858H38.9281C40.4728 17.3858 41.755 17.7007 42.7748 18.3306C43.7996 18.9604 44.5219 19.8628 44.9419 21.0375C45.3618 22.2073 45.4368 23.6045 45.1668 25.2292C44.9069 26.7989 44.3895 28.1461 43.6146 29.2709C42.8398 30.3906 41.8475 31.2505 40.6377 31.8504C39.428 32.4452 38.0432 32.7427 36.4836 32.7427ZM34.6764 29.9607H36.671C37.6358 29.9607 38.4807 29.7808 39.2055 29.4208C39.9354 29.0609 40.5327 28.506 40.9976 27.7562C41.4676 27.0063 41.8 26.0465 41.9949 24.8768C42.1799 23.767 42.1674 22.8672 41.9575 22.1773C41.7525 21.4824 41.3551 20.975 40.7652 20.6551C40.1753 20.3302 39.4005 20.1677 38.4407 20.1677H36.3036L34.6764 29.9607ZM46.3272 32.7427L48.8767 17.3858H54.9355C56.0952 17.3858 57.0501 17.5907 57.7999 18.0006C58.5548 18.4105 59.0847 18.9929 59.3896 19.7478C59.6995 20.4976 59.772 21.3825 59.607 22.4022C59.4371 23.422 59.0697 24.2969 58.5048 25.0267C57.9449 25.7566 57.215 26.319 56.3152 26.7139C55.4204 27.1038 54.3831 27.2988 53.2033 27.2988H49.1466L49.5966 24.6893H53.1208C53.7407 24.6893 54.2706 24.6043 54.7105 24.4343C55.1504 24.2644 55.4979 24.0094 55.7528 23.6695C56.0128 23.3296 56.1827 22.9071 56.2627 22.4022C56.3477 21.8873 56.3177 21.4574 56.1727 21.1125C56.0278 20.7626 55.7653 20.4976 55.3854 20.3177C55.0055 20.1327 54.5056 20.0402 53.8857 20.0402H51.6961L49.5741 32.7427H46.3272ZM55.7753 25.7541L58.4373 32.7427H54.853L52.2735 25.7541H55.7753ZM66.1045 17.3858L63.555 32.7427H60.3082L62.8576 17.3858H66.1045ZM66.2263 32.7427L68.7758 17.3858H78.9438L78.4939 20.0627H71.5728L70.9729 23.722H77.2191L76.7692 26.3989H70.523L69.4732 32.7427H66.2263ZM90.6133 17.3858H93.8602L92.2105 27.3588C92.0256 28.4785 91.5981 29.4583 90.9283 30.2982C90.2584 31.138 89.4061 31.7929 88.3713 32.2628C87.3365 32.7277 86.1817 32.9601 84.907 32.9601C83.6322 32.9601 82.5574 32.7277 81.6826 32.2628C80.8078 31.7929 80.1754 31.138 79.7855 30.2982C79.3956 29.4583 79.2931 28.4785 79.4781 27.3588L81.1277 17.3858H84.3746L82.7624 27.0813C82.6724 27.6662 82.7174 28.1861 82.8974 28.641C83.0823 29.0959 83.3873 29.4533 83.8122 29.7133C84.2371 29.9732 84.762 30.1032 85.3869 30.1032C86.0168 30.1032 86.5866 29.9732 87.0965 29.7133C87.6114 29.4533 88.0339 29.0959 88.3638 28.641C88.6987 28.1861 88.9112 27.6662 89.0012 27.0813L90.6133 17.3858ZM93.982 32.7427L96.5315 17.3858H99.7784L97.6788 30.0657H104.262L103.813 32.7427H93.982ZM105.963 32.7427L108.512 17.3858H111.759L109.66 30.0657H116.243L115.793 32.7427H105.963ZM117.634 17.3858H121.271L123.678 23.9994H123.843L128.425 17.3858H132.061L124.818 27.3138L123.91 32.7427H120.686L121.593 27.3138L117.634 17.3858Z" fill="#111111"/>
</svg>
