<svg width="39" height="39" viewBox="0 0 39 39" fill="none" xmlns="http://www.w3.org/2000/svg">
<g clip-path="url(#clip0_1561_24818)">
<path d="M9.59424 32.9998L34.4338 26.8066M11.3963 28.703C11.0361 28.4866 10.722 28.2013 10.472 27.8635C10.222 27.5257 10.0411 27.142 9.93939 26.7342C9.83772 26.3265 9.81737 25.9027 9.87949 25.487C9.94161 25.0714 10.085 24.6721 10.3014 24.3119L17.7181 11.969C17.9346 11.6088 18.2198 11.2947 18.5576 11.0447C18.8955 10.7947 19.2792 10.6137 19.687 10.5121C20.0947 10.4104 20.5185 10.3901 20.9341 10.4522C21.3498 10.5143 21.7491 10.6577 22.1093 10.8741L24.1666 12.1099C24.3467 12.2182 24.5037 12.3608 24.6287 12.5297C24.7537 12.6986 24.8442 12.8905 24.895 13.0944C24.9459 13.2982 24.956 13.5101 24.925 13.7179C24.8939 13.9258 24.8222 14.1254 24.714 14.3055L15.6492 29.3918C15.541 29.5719 15.3984 29.729 15.2295 29.854C15.0606 29.9789 14.8687 30.0694 14.6648 30.1203C14.4609 30.1711 14.2491 30.1813 14.0412 30.1502C13.8334 30.1192 13.6338 30.0475 13.4537 29.9392L11.3963 28.703Z" stroke="#868C98" stroke-width="0.4" stroke-linecap="round" stroke-linejoin="round"/>
<path d="M15.4055 29.7082L17.2904 30.841C17.4722 30.9503 17.69 30.9828 17.8959 30.9315C18.1017 30.8801 18.2787 30.7492 18.388 30.5674L19.6242 28.51C19.7334 28.3281 19.7659 28.1104 19.7146 27.9045C19.6633 27.6987 19.5323 27.5217 19.3505 27.4124L17.5089 26.3058L15.6548 29.3917C15.5832 29.5101 15.5001 29.6157 15.4056 29.7086M22.8654 17.3912L24.707 18.4977C24.8888 18.607 25.1066 18.6395 25.3125 18.5882C25.5183 18.5369 25.6953 18.4059 25.8046 18.2241L27.0408 16.1667C27.15 15.9849 27.1825 15.7671 27.1312 15.5612C27.0799 15.3554 26.9489 15.1784 26.7671 15.0691L24.882 13.9367C24.8435 14.066 24.7887 14.1899 24.7191 14.3055L22.8654 17.3912ZM18.1111 11.3235L9.91996 24.9569L7.36951 21.6571C6.97542 21.1473 6.74441 20.5304 6.70672 19.8872C6.66902 19.2439 6.8264 18.6043 7.15826 18.0519L10.718 12.1276C11.0499 11.5753 11.5407 11.136 12.1264 10.8673C12.7121 10.5986 13.3652 10.5129 14.0003 10.6216L18.1111 11.3235ZM13.3143 26.5853C13.1779 26.5048 13.0587 26.3982 12.9637 26.2714C12.8687 26.1447 12.7997 26.0004 12.7607 25.8468C12.7218 25.6933 12.7136 25.5335 12.7367 25.3768C12.7597 25.2201 12.8136 25.0695 12.8952 24.9337C12.9768 24.7979 13.0844 24.6796 13.2119 24.5856C13.3394 24.4917 13.4843 24.4239 13.6382 24.3861C13.792 24.3484 13.9518 24.3416 14.1083 24.3659C14.2649 24.3903 14.415 24.4454 14.5501 24.528C14.8202 24.6932 15.014 24.9585 15.0894 25.2659C15.1647 25.5734 15.1155 25.8982 14.9525 26.1696C14.7895 26.4409 14.5259 26.6369 14.219 26.7148C13.9122 26.7926 13.587 26.7461 13.3143 26.5853ZM21.1429 13.5564C21.0078 13.4737 20.8577 13.4186 20.7011 13.3942C20.5446 13.3698 20.3848 13.3766 20.231 13.4143C20.0771 13.452 19.9322 13.5197 19.8047 13.6137C19.6771 13.7076 19.5695 13.8259 19.4878 13.9617C19.4062 14.0975 19.3523 14.248 19.3292 14.4048C19.3061 14.5615 19.3142 14.7212 19.3532 14.8748C19.3921 15.0283 19.4611 15.1726 19.556 15.2994C19.651 15.4262 19.7702 15.5329 19.9066 15.6134C20.1793 15.7742 20.5044 15.8209 20.8113 15.7431C21.1181 15.6653 21.3818 15.4694 21.5449 15.198C21.708 14.9267 21.7572 14.6019 21.6819 14.2944C21.6066 13.9869 21.4129 13.7217 21.1429 13.5564Z" stroke="#868C98" stroke-width="0.4" stroke-linecap="round" stroke-linejoin="round"/>
</g>
<defs>
<clipPath id="clip0_1561_24818">
<rect width="32" height="32" fill="white" transform="translate(0 7.74152) rotate(-14)"/>
</clipPath>
</defs>
</svg>
