<svg width="20" height="20" viewBox="0 0 20 20" fill="none" xmlns="http://www.w3.org/2000/svg">
<path d="M8.95937 2.04163C9.53437 1.54997 10.476 1.54997 11.0594 2.04163L12.376 3.17505C12.626 3.39172 13.0927 3.5667 13.426 3.5667H14.8427C15.726 3.5667 16.451 4.29164 16.451 5.17497V6.5917C16.451 6.9167 16.626 7.39171 16.8427 7.64171L17.976 8.95834C18.4677 9.53334 18.4677 10.475 17.976 11.0584L16.8427 12.375C16.626 12.625 16.451 13.0917 16.451 13.425V14.8417C16.451 15.7251 15.726 16.45 14.8427 16.45H13.426C13.101 16.45 12.626 16.625 12.376 16.8416L11.0594 17.975C10.4844 18.4666 9.54271 18.4666 8.95937 17.975L7.64272 16.8416C7.39272 16.625 6.92604 16.45 6.59271 16.45H5.15103C4.2677 16.45 3.54271 15.7251 3.54271 14.8417V13.4167C3.54271 13.0917 3.36771 12.625 3.15938 12.375L2.03437 11.05C1.55104 10.475 1.55104 9.54168 2.03437 8.96668L3.15938 7.64171C3.36771 7.39171 3.54271 6.92504 3.54271 6.60004V5.17497C3.54271 4.29164 4.2677 3.5667 5.15103 3.5667H6.59271C6.91771 3.5667 7.39272 3.39172 7.64272 3.17505L8.95937 2.04163Z" stroke="#868C98" stroke-width="1.25" stroke-linecap="round" stroke-linejoin="round"/>
<path d="M8.24325 12.35L9.45156 13.2833C9.6099 13.4417 9.95991 13.5167 10.1932 13.5167H11.6682C12.1349 13.5167 12.6432 13.1667 12.7599 12.7L13.6932 9.85C13.8849 9.30833 13.5349 8.83335 12.9516 8.83335H11.3932C11.1599 8.83335 10.9682 8.64174 11.0016 8.36674L11.1932 7.11674C11.2682 6.76674 11.0349 6.37505 10.6849 6.25838C10.3766 6.14172 9.98491 6.30001 9.82657 6.53335L8.22656 8.90833" stroke="#868C98" stroke-width="1.25" stroke-miterlimit="10"/>
<path d="M6.25 12.35V8.53334C6.25 7.98334 6.48334 7.79166 7.03334 7.79166H7.425C7.96667 7.79166 8.20834 7.98334 8.20834 8.53334V12.35C8.20834 12.8916 7.975 13.0916 7.425 13.0916H7.03334C6.48334 13.0916 6.25 12.9 6.25 12.35Z" stroke="#868C98" stroke-width="1.25" stroke-linecap="round" stroke-linejoin="round"/>
</svg>
