<svg width="20" height="20" viewBox="0 0 20 20" fill="none" xmlns="http://www.w3.org/2000/svg">
<path fill-rule="evenodd" clip-rule="evenodd" d="M12.8341 1.66669C13.0008 2.58335 12.5841 3.50002 12.0841 4.16669C11.5841 4.83335 10.6674 5.41669 9.75077 5.33335C9.5841 4.41669 10.0008 3.58335 10.5008 2.91669C11.0841 2.25002 12.0008 1.75002 12.8341 1.66669ZM15.5008 16.1667C15.9174 15.5 16.1674 15.0834 16.5008 14.3334C13.9174 13.3334 13.5008 9.66669 16.0841 8.33335C15.3341 7.33335 14.2508 6.83335 13.1674 6.83335C12.4174 6.83335 11.9174 7.00002 11.4174 7.16669C11.0008 7.33335 10.6674 7.41669 10.2508 7.41669C9.75077 7.41669 9.41744 7.25002 8.91744 7.08335C8.41744 6.91669 7.91744 6.75002 7.3341 6.75002C6.16744 6.75002 4.91744 7.41669 4.16744 8.66669C3.0841 10.3334 3.25077 13.5834 5.00077 16.25C5.75077 17.25 6.5841 18.3334 7.66744 18.3334C8.16744 18.3334 8.41744 18.1667 8.75077 18.0834C9.16744 17.9167 9.5841 17.75 10.2508 17.75C11.0008 17.75 11.3341 17.9167 11.7508 18.0834C12.0841 18.25 12.3341 18.3334 12.8341 18.3334C14.0008 18.3334 14.8341 17.0834 15.5008 16.1667Z" fill="#868C98"/>
</svg>
