<svg width="40" height="40" viewBox="0 0 40 40" fill="none" xmlns="http://www.w3.org/2000/svg">
<g filter="url(#filter0_dii_1285_17843)">
<path d="M2 13C2 6.37258 7.37258 1 14 1H26C32.6274 1 38 6.37258 38 13V25C38 31.6274 32.6274 37 26 37H14C7.37258 37 2 31.6274 2 25V13Z" fill="#155DFC" shape-rendering="crispEdges"/>
<path d="M14 1.5H26C32.3513 1.5 37.5 6.64873 37.5 13V25C37.5 31.3513 32.3513 36.5 26 36.5H14C7.64873 36.5 2.5 31.3513 2.5 25V13C2.5 6.64873 7.64873 1.5 14 1.5Z" stroke="#F6F8FA" shape-rendering="crispEdges"/>
<path d="M24.9257 17.9333H22.3507V11.9333C22.3507 10.5333 21.5924 10.25 20.6674 11.3L20.0007 12.0583L14.3591 18.475C13.5841 19.35 13.9091 20.0667 15.0757 20.0667H17.6507V26.0667C17.6507 27.4667 18.4091 27.75 19.3341 26.7L20.0007 25.9417L25.6424 19.525C26.4174 18.65 26.0924 17.9333 24.9257 17.9333Z" fill="white"/>
</g>
<defs>
<filter id="filter0_dii_1285_17843" x="0" y="-1" width="40" height="41" filterUnits="userSpaceOnUse" color-interpolation-filters="sRGB">
<feFlood flood-opacity="0" result="BackgroundImageFix"/>
<feColorMatrix in="SourceAlpha" type="matrix" values="0 0 0 0 0 0 0 0 0 0 0 0 0 0 0 0 0 0 127 0" result="hardAlpha"/>
<feOffset dy="1"/>
<feGaussianBlur stdDeviation="1"/>
<feComposite in2="hardAlpha" operator="out"/>
<feColorMatrix type="matrix" values="0 0 0 0 0 0 0 0 0 0 0 0 0 0 0 0 0 0 0.25 0"/>
<feBlend mode="normal" in2="BackgroundImageFix" result="effect1_dropShadow_1285_17843"/>
<feBlend mode="normal" in="SourceGraphic" in2="effect1_dropShadow_1285_17843" result="shape"/>
<feColorMatrix in="SourceAlpha" type="matrix" values="0 0 0 0 0 0 0 0 0 0 0 0 0 0 0 0 0 0 127 0" result="hardAlpha"/>
<feOffset dy="-2"/>
<feGaussianBlur stdDeviation="2"/>
<feComposite in2="hardAlpha" operator="arithmetic" k2="-1" k3="1"/>
<feColorMatrix type="matrix" values="0 0 0 0 0 0 0 0 0 0 0 0 0 0 0 0 0 0 0.25 0"/>
<feBlend mode="normal" in2="shape" result="effect2_innerShadow_1285_17843"/>
<feColorMatrix in="SourceAlpha" type="matrix" values="0 0 0 0 0 0 0 0 0 0 0 0 0 0 0 0 0 0 127 0" result="hardAlpha"/>
<feMorphology radius="1" operator="erode" in="SourceAlpha" result="effect3_innerShadow_1285_17843"/>
<feOffset/>
<feComposite in2="hardAlpha" operator="arithmetic" k2="-1" k3="1"/>
<feColorMatrix type="matrix" values="0 0 0 0 0 0 0 0 0 0 0 0 0 0 0 0 0 0 0.25 0"/>
<feBlend mode="normal" in2="effect2_innerShadow_1285_17843" result="effect3_innerShadow_1285_17843"/>
</filter>
</defs>
</svg>
