<svg width="20" height="20" viewBox="0 0 20 20" fill="none" xmlns="http://www.w3.org/2000/svg">
<path d="M7.5013 18.3333H12.5013C16.668 18.3333 18.3346 16.6667 18.3346 12.5V7.5C18.3346 3.33333 16.668 1.66666 12.5013 1.66666H7.5013C3.33464 1.66666 1.66797 3.33333 1.66797 7.5V12.5C1.66797 16.6667 3.33464 18.3333 7.5013 18.3333Z" stroke="#868C98" stroke-width="1.25" stroke-linecap="round" stroke-linejoin="round"/>
<path d="M5.83203 6.875C6.66536 7.70833 8.0237 7.70833 8.86536 6.875" stroke="#868C98" stroke-width="1.25" stroke-miterlimit="10" stroke-linecap="round" stroke-linejoin="round"/>
<path d="M11.1328 6.875C11.9661 7.70833 13.3245 7.70833 14.1661 6.875" stroke="#868C98" stroke-width="1.25" stroke-miterlimit="10" stroke-linecap="round" stroke-linejoin="round"/>
<path d="M7 10.8333H13C13.4167 10.8333 13.75 11.1667 13.75 11.5833C13.75 13.6583 12.075 15.3333 10 15.3333C7.925 15.3333 6.25 13.6583 6.25 11.5833C6.25 11.1667 6.58333 10.8333 7 10.8333Z" stroke="#868C98" stroke-width="1.25" stroke-miterlimit="10" stroke-linecap="round" stroke-linejoin="round"/>
</svg>
