<svg width="20" height="20" viewBox="0 0 20 20" fill="none" xmlns="http://www.w3.org/2000/svg">
<path d="M12.9237 2.35834H7.0737C4.9987 2.35834 4.54036 3.39167 4.2737 4.65834L3.33203 9.16667H16.6654L15.7237 4.65834C15.457 3.39167 14.9987 2.35834 12.9237 2.35834Z" stroke="#868C98" stroke-width="1.25" stroke-linecap="round" stroke-linejoin="round"/>
<path d="M18.3253 16.5167C18.4169 17.4917 17.6336 18.3333 16.6336 18.3333H15.0669C14.1669 18.3333 14.0419 17.95 13.8836 17.475L13.7169 16.975C13.4836 16.2917 13.3336 15.8333 12.1336 15.8333H7.86693C6.66693 15.8333 6.49194 16.35 6.2836 16.975L6.11694 17.475C5.9586 17.95 5.8336 18.3333 4.9336 18.3333H3.36694C2.36694 18.3333 1.5836 17.4917 1.67527 16.5167L2.14194 11.4417C2.2586 10.1917 2.50027 9.16666 4.6836 9.16666H15.3169C17.5003 9.16666 17.7419 10.1917 17.8586 11.4417L18.3253 16.5167Z" stroke="#868C98" stroke-width="1.25" stroke-linecap="round" stroke-linejoin="round"/>
<path d="M3.33333 6.66666H2.5" stroke="#868C98" stroke-width="1.25" stroke-linecap="round" stroke-linejoin="round"/>
<path d="M17.5013 6.66666H16.668" stroke="#868C98" stroke-width="1.25" stroke-linecap="round" stroke-linejoin="round"/>
<path d="M10 2.5V4.16667" stroke="#868C98" stroke-width="1.25" stroke-linecap="round" stroke-linejoin="round"/>
<path d="M8.75 4.16666H11.25" stroke="#868C98" stroke-width="1.25" stroke-linecap="round" stroke-linejoin="round"/>
<path d="M5 12.5H7.5" stroke="#868C98" stroke-width="1.25" stroke-linecap="round" stroke-linejoin="round"/>
<path d="M12.5 12.5H15" stroke="#868C98" stroke-width="1.25" stroke-linecap="round" stroke-linejoin="round"/>
</svg>
