<svg width="32" height="32" viewBox="0 0 32 32" fill="none" xmlns="http://www.w3.org/2000/svg">
<path d="M6.66797 22V10C6.66797 9.17333 6.69464 8.44 6.78797 7.78666C7.17464 4.27999 8.82797 3.33333 13.3346 3.33333H18.668C23.1746 3.33333 24.828 4.27999 25.2146 7.78666C25.308 8.44 25.3346 9.17333 25.3346 10V22C25.3346 22.8267 25.308 23.56 25.2146 24.2133C24.828 27.72 23.1746 28.6667 18.668 28.6667H13.3346C8.82797 28.6667 7.17464 27.72 6.78797 24.2133C6.69464 23.56 6.66797 22.8267 6.66797 22Z" stroke="#868C98" stroke-width="2" stroke-linecap="round" stroke-linejoin="round"/>
<path d="M2.66797 26V6" stroke="#868C98" stroke-width="2" stroke-linecap="round" stroke-linejoin="round"/>
<path d="M29.332 25.3333V5.33333" stroke="#868C98" stroke-width="2" stroke-linecap="round" stroke-linejoin="round"/>
</svg>
