<svg width="32" height="32" viewBox="0 0 32 32" fill="none" xmlns="http://www.w3.org/2000/svg">
<path d="M2.66797 20H24.668C27.2413 20 29.3346 22.0933 29.3346 24.6667C29.3346 27.24 27.2413 29.3333 24.668 29.3333C22.0946 29.3333 20.0013 27.24 20.0013 24.6667V24" stroke="#868C98" stroke-width="2" stroke-miterlimit="10" stroke-linecap="round" stroke-linejoin="round"/>
<path d="M2.66797 16H24.668C27.228 16 29.3346 13.9067 29.3346 11.3333C29.3346 8.77334 27.228 6.66667 24.668 6.66667C22.108 6.66667 20.0013 8.76001 20.0013 11.3333V12" stroke="#868C98" stroke-width="2" stroke-miterlimit="10" stroke-linecap="round" stroke-linejoin="round"/>
<path d="M2.66797 12H12.4146C14.4013 12 16.0013 10.3867 16.0013 8.41333C16.0013 6.42666 14.388 4.82666 12.4146 4.82666C10.428 4.82666 8.82796 6.43999 8.82796 8.41333V8.91999" stroke="#868C98" stroke-width="2" stroke-miterlimit="10" stroke-linecap="round" stroke-linejoin="round"/>
</svg>
