<svg width="32" height="32" viewBox="0 0 32 32" fill="none" xmlns="http://www.w3.org/2000/svg">
<path d="M20.9605 12.92C23.7071 15.6667 23.7071 20.1067 20.9605 22.84C18.2138 25.5867 13.7738 25.5867 11.0405 22.84C8.2938 20.0934 8.2938 15.6534 11.0405 12.92C13.7738 10.1734 18.2271 10.1734 20.9605 12.92Z" stroke="#868C98" stroke-width="2.0124" stroke-linecap="round" stroke-linejoin="round"/>
<path d="M15.9989 17.88L13.8789 20" stroke="#868C98" stroke-width="2.0124" stroke-linecap="round" stroke-linejoin="round"/>
<path d="M25.4251 8.45337C25.6251 8.65337 25.6251 8.9867 25.4251 9.20004C25.2251 9.40004 24.8918 9.40004 24.6785 9.20004C24.4651 9.00004 24.4785 8.66671 24.6785 8.45337C24.8785 8.24004 25.2251 8.24004 25.4251 8.45337Z" stroke="#868C98" stroke-width="1.33333" stroke-miterlimit="10"/>
<path d="M25.4251 8.45337C25.6251 8.65337 25.6251 8.9867 25.4251 9.20004C25.2251 9.40004 24.8918 9.40004 24.6785 9.20004C24.4651 9.00004 24.4785 8.66671 24.6785 8.45337C24.8785 8.24004 25.2251 8.24004 25.4251 8.45337Z" stroke="#868C98" stroke-width="2" stroke-linecap="round" stroke-linejoin="round"/>
<path d="M7.31854 26.56C7.51854 26.76 7.51854 27.0933 7.31854 27.3066C7.11854 27.52 6.78521 27.5066 6.57188 27.3066C6.37187 27.1066 6.37187 26.7733 6.57188 26.56C6.77188 26.3467 7.11854 26.3467 7.31854 26.56Z" stroke="#868C98" stroke-width="1.33333" stroke-miterlimit="10"/>
<path d="M7.31854 26.56C7.51854 26.76 7.51854 27.0933 7.31854 27.3066C7.11854 27.52 6.78521 27.5066 6.57188 27.3066C6.37187 27.1066 6.37187 26.7733 6.57188 26.56C6.77188 26.3467 7.11854 26.3467 7.31854 26.56Z" stroke="#868C98" stroke-width="2" stroke-linecap="round" stroke-linejoin="round"/>
<path d="M29.1751 17.5067C29.3751 17.7067 29.3751 18.04 29.1751 18.2533C28.9751 18.4533 28.6418 18.4533 28.4285 18.2533C28.2151 18.0533 28.2285 17.72 28.4285 17.5067C28.6285 17.2933 28.9751 17.2933 29.1751 17.5067Z" stroke="#868C98" stroke-width="1.33333" stroke-miterlimit="10"/>
<path d="M29.1751 17.5067C29.3751 17.7067 29.3751 18.04 29.1751 18.2533C28.9751 18.4533 28.6418 18.4533 28.4285 18.2533C28.2151 18.0533 28.2285 17.72 28.4285 17.5067C28.6285 17.2933 28.9751 17.2933 29.1751 17.5067Z" stroke="#868C98" stroke-width="2" stroke-linecap="round" stroke-linejoin="round"/>
<path d="M3.56077 17.5067C3.76077 17.7067 3.76077 18.04 3.56077 18.2533C3.36077 18.4667 3.0274 18.4533 2.81406 18.2533C2.61406 18.0533 2.61406 17.72 2.81406 17.5067C3.0274 17.2933 3.36077 17.2933 3.56077 17.5067Z" stroke="#868C98" stroke-width="1.33333" stroke-miterlimit="10"/>
<path d="M3.56077 17.5067C3.76077 17.7067 3.76077 18.04 3.56077 18.2533C3.36077 18.4667 3.0274 18.4533 2.81406 18.2533C2.61406 18.0533 2.61406 17.72 2.81406 17.5067C3.0274 17.2933 3.36077 17.2933 3.56077 17.5067Z" stroke="#868C98" stroke-width="2" stroke-linecap="round" stroke-linejoin="round"/>
<path d="M25.4251 26.56C25.6251 26.76 25.6251 27.0933 25.4251 27.3066C25.2251 27.5066 24.8918 27.5066 24.6785 27.3066C24.4651 27.1066 24.4785 26.7733 24.6785 26.56C24.8918 26.3467 25.2251 26.3467 25.4251 26.56Z" stroke="#868C98" stroke-width="1.33333" stroke-miterlimit="10"/>
<path d="M25.4251 26.56C25.6251 26.76 25.6251 27.0933 25.4251 27.3066C25.2251 27.5066 24.8918 27.5066 24.6785 27.3066C24.4651 27.1066 24.4785 26.7733 24.6785 26.56C24.8918 26.3467 25.2251 26.3467 25.4251 26.56Z" stroke="#868C98" stroke-width="2" stroke-linecap="round" stroke-linejoin="round"/>
<path d="M7.31854 8.45337C7.51854 8.65337 7.51854 8.9867 7.31854 9.20004C7.11854 9.41337 6.78521 9.40004 6.57188 9.20004C6.37187 9.00004 6.37187 8.66671 6.57188 8.45337C6.77188 8.24004 7.11854 8.24004 7.31854 8.45337Z" stroke="#868C98" stroke-width="1.33333" stroke-miterlimit="10"/>
<path d="M7.31854 8.45337C7.51854 8.65337 7.51854 8.9867 7.31854 9.20004C7.11854 9.41337 6.78521 9.40004 6.57188 9.20004C6.37187 9.00004 6.37187 8.66671 6.57188 8.45337C6.77188 8.24004 7.11854 8.24004 7.31854 8.45337Z" stroke="#868C98" stroke-width="2" stroke-linecap="round" stroke-linejoin="round"/>
<path d="M16.3744 4.69337C16.5744 4.89337 16.5744 5.2267 16.3744 5.44003C16.1744 5.65337 15.841 5.64003 15.6277 5.44003C15.4144 5.24003 15.4277 4.9067 15.6277 4.69337C15.8277 4.48004 16.1744 4.49337 16.3744 4.69337Z" stroke="#868C98" stroke-width="1.33333" stroke-miterlimit="10"/>
<path d="M16.3744 4.69337C16.5744 4.89337 16.5744 5.2267 16.3744 5.44003C16.1744 5.65337 15.841 5.64003 15.6277 5.44003C15.4144 5.24003 15.4277 4.9067 15.6277 4.69337C15.8277 4.48004 16.1744 4.49337 16.3744 4.69337Z" stroke="#868C98" stroke-width="2" stroke-linecap="round" stroke-linejoin="round"/>
</svg>
