<svg width="31" height="31" viewBox="0 0 31 31" fill="none" xmlns="http://www.w3.org/2000/svg">
<path d="M4.51172 28.3707V6.44789C4.51172 3.86874 6.23975 2.57916 8.38045 2.57916H18.6971C20.8378 2.57916 22.5658 3.86874 22.5658 6.44789V28.3707H4.51172Z" stroke="#868C98" stroke-width="1.93436" stroke-linecap="round" stroke-linejoin="round"/>
<path d="M2.57812 28.3707H24.5009" stroke="#868C98" stroke-width="1.93436" stroke-linecap="round" stroke-linejoin="round"/>
<path d="M10.8201 12.8958H16.275C17.6162 12.8958 18.7123 12.251 18.7123 10.4585V8.8723C18.7123 7.07978 17.6162 6.435 16.275 6.435H10.8201C9.47895 6.435 8.38281 7.07978 8.38281 8.8723V10.4585C8.38281 12.251 9.47895 12.8958 10.8201 12.8958Z" stroke="#868C98" stroke-width="1.93436" stroke-linecap="round" stroke-linejoin="round"/>
<path d="M8.38281 16.7645H12.2515" stroke="#868C98" stroke-width="1.93436" stroke-linecap="round" stroke-linejoin="round"/>
<path d="M22.5664 20.6461L28.3695 20.6332V12.8958L25.7903 11.6062" stroke="#868C98" stroke-width="1.93436" stroke-linecap="round" stroke-linejoin="round"/>
</svg>
