<svg width="32" height="32" viewBox="0 0 32 32" fill="none" xmlns="http://www.w3.org/2000/svg">
<path d="M2.66797 17.4667L6.0013 15.4667C8.05464 14.24 10.6146 14.24 12.668 15.4667C14.7213 16.6933 17.2813 16.6933 19.3346 15.4667C21.388 14.24 23.948 14.24 26.0013 15.4667L29.3346 17.4667" stroke="#868C98" stroke-width="2" stroke-miterlimit="10" stroke-linecap="round" stroke-linejoin="round"/>
<path d="M2.66797 5.20052L6.0013 7.20052C8.05464 8.42719 10.6146 8.42719 12.668 7.20052C14.7213 5.97386 17.2813 5.97386 19.3346 7.20052C21.388 8.42719 23.948 8.42719 26.0013 7.20052L29.3346 5.20052" stroke="#868C98" stroke-width="2" stroke-miterlimit="10" stroke-linecap="round" stroke-linejoin="round"/>
<path d="M2.66797 26.8L6.0013 24.8C8.05464 23.5733 10.6146 23.5733 12.668 24.8C14.7213 26.0267 17.2813 26.0267 19.3346 24.8C21.388 23.5733 23.948 23.5733 26.0013 24.8L29.3346 26.8" stroke="#868C98" stroke-width="2" stroke-miterlimit="10" stroke-linecap="round" stroke-linejoin="round"/>
</svg>
