<svg width="31" height="31" viewBox="0 0 31 31" fill="none" xmlns="http://www.w3.org/2000/svg">
<path d="M20.0032 3.64951H10.9504C7.73931 3.64951 7.03004 5.24858 6.61738 7.20874L5.16016 14.1853H25.7934L24.3362 7.20874C23.9235 5.24858 23.2142 3.64951 20.0032 3.64951Z" stroke="#868C98" stroke-width="1.93436" stroke-linecap="round" stroke-linejoin="round"/>
<path d="M28.3591 25.5594C28.5009 27.0682 27.2887 28.3707 25.7412 28.3707H23.3168C21.9241 28.3707 21.7306 27.7775 21.4856 27.0424L21.2277 26.2687C20.8666 25.2112 20.6345 24.5019 18.7775 24.5019H12.1749C10.3179 24.5019 10.0471 25.3015 9.72469 26.2687L9.46677 27.0424C9.22175 27.7775 9.02831 28.3707 7.63557 28.3707H5.21117C3.66368 28.3707 2.45147 27.0682 2.59333 25.5594L3.31549 17.7059C3.49603 15.7715 3.87001 14.1853 7.2487 14.1853H23.7037C27.0824 14.1853 27.4564 15.7715 27.6369 17.7059L28.3591 25.5594Z" stroke="#868C98" stroke-width="1.93436" stroke-linecap="round" stroke-linejoin="round"/>
<path d="M5.16067 10.3166H3.87109" stroke="#868C98" stroke-width="1.93436" stroke-linecap="round" stroke-linejoin="round"/>
<path d="M27.0825 10.3166H25.793" stroke="#868C98" stroke-width="1.93436" stroke-linecap="round" stroke-linejoin="round"/>
<path d="M15.4766 3.86874V6.4479" stroke="#868C98" stroke-width="1.93436" stroke-linecap="round" stroke-linejoin="round"/>
<path d="M13.543 6.44788H17.4117" stroke="#868C98" stroke-width="1.93436" stroke-linecap="round" stroke-linejoin="round"/>
<path d="M7.73828 19.3437H11.607" stroke="#868C98" stroke-width="1.93436" stroke-linecap="round" stroke-linejoin="round"/>
<path d="M19.3438 19.3437H23.2125" stroke="#868C98" stroke-width="1.93436" stroke-linecap="round" stroke-linejoin="round"/>
</svg>
