<svg width="32" height="32" viewBox="0 0 32 32" fill="none" xmlns="http://www.w3.org/2000/svg">
<path d="M3.05469 10.3733V23.3467C3.05469 25.88 4.85469 26.92 7.04135 25.6667L10.1747 23.88C10.8547 23.4933 11.988 23.4533 12.6947 23.8133L19.6947 27.32C20.4014 27.6667 21.5347 27.64 22.2147 27.2533L27.988 23.9467C28.7214 23.52 29.3347 22.48 29.3347 21.6267V8.65333C29.3347 6.12 27.5347 5.08 25.348 6.33333L22.2147 8.12C21.5347 8.50667 20.4014 8.54667 19.6947 8.18667L12.6947 4.69333C11.988 4.34667 10.8547 4.37333 10.1747 4.76L4.40135 8.06667C3.65469 8.49333 3.05469 9.53333 3.05469 10.3733Z" stroke="#868C98" stroke-width="2" stroke-linecap="round" stroke-linejoin="round"/>
<path d="M11.4141 5.33333V22.6667" stroke="#868C98" stroke-width="2" stroke-linecap="round" stroke-linejoin="round"/>
<path d="M20.9727 8.82682V26.6668" stroke="#868C98" stroke-width="2" stroke-linecap="round" stroke-linejoin="round"/>
</svg>
