<svg width="31" height="31" viewBox="0 0 31 31" fill="none" xmlns="http://www.w3.org/2000/svg">
<path d="M15.6821 14.0177C15.5531 14.0048 15.3983 14.0048 15.2565 14.0177C12.1873 13.9145 9.75 11.3999 9.75 8.30488C9.75 5.14542 12.3034 2.57916 15.4757 2.57916C18.6352 2.57916 21.2014 5.14542 21.2014 8.30488C21.1885 11.3999 18.7512 13.9145 15.6821 14.0177Z" stroke="#868C98" stroke-width="1.93436" stroke-linecap="round" stroke-linejoin="round"/>
<path d="M9.23511 18.7762C6.11434 20.8653 6.11434 24.2698 9.23511 26.346C12.7814 28.7189 18.5974 28.7189 22.1438 26.346C25.2645 24.2569 25.2645 20.8524 22.1438 18.7762C18.6103 16.4163 12.7943 16.4163 9.23511 18.7762Z" stroke="#868C98" stroke-width="1.93436" stroke-linecap="round" stroke-linejoin="round"/>
</svg>
