<svg width="32" height="32" viewBox="0 0 32 32" fill="none" xmlns="http://www.w3.org/2000/svg">
<path d="M27.332 12.6667C29.332 12.6667 29.332 13.3333 29.332 14.6667V17.3333C29.332 18.6667 29.332 19.3333 27.332 19.3333" stroke="#868C98" stroke-width="2" stroke-linecap="round" stroke-linejoin="round"/>
<path d="M13.3336 10.6667L10.8136 14C10.2936 14.8933 10.9336 16 11.9603 16H15.0269C16.0536 16 16.6936 17.1067 16.1869 18L13.3336 21.3333" stroke="#868C98" stroke-width="2" stroke-linecap="round" stroke-linejoin="round"/>
<path d="M9.33464 25.3333C4.0013 25.3333 2.66797 24 2.66797 18.6667V13.3333C2.66797 8 4.0013 6.66667 9.33464 6.66667" stroke="#868C98" stroke-width="2" stroke-linecap="round" stroke-linejoin="round"/>
<path d="M17.332 6.66667C22.6654 6.66667 23.9987 8 23.9987 13.3333V18.6667C23.9987 24 22.6654 25.3333 17.332 25.3333" stroke="#868C98" stroke-width="2" stroke-linecap="round" stroke-linejoin="round"/>
</svg>
